<svg width="122" height="53" viewBox="0 0 122 53" fill="none" xmlns="http://www.w3.org/2000/svg">
<g id="+20FS">
<path id="Vector" d="M97.3508 21.809L102.974 20.3024C103.25 20.9434 103.712 21.4507 104.359 21.8242C105.006 22.1978 105.789 22.4088 106.706 22.4575C107.643 22.5009 108.681 22.37 109.819 22.065C111.448 21.6286 112.663 21.0611 113.465 20.3625C114.286 19.6587 114.586 18.8947 114.365 18.0704C114.197 17.4424 113.793 17.0352 113.154 16.8488C112.53 16.6375 111.461 16.6506 109.947 16.888L105.56 17.5902C102.517 18.0898 100.184 17.9788 98.5606 17.2569C96.9565 16.5299 95.9046 15.2341 95.405 13.3697C95.0106 11.8978 95.1059 10.526 95.6907 9.25451C96.2951 7.97771 97.3087 6.85421 98.7315 5.884C100.174 4.90854 101.955 4.13684 104.075 3.56891C106.174 3.00623 108.111 2.81348 109.883 2.99067C111.655 3.16785 113.167 3.66731 114.418 4.48904C115.669 5.31077 116.528 6.43726 116.995 7.86852L111.373 9.37512C111.131 8.78776 110.72 8.35112 110.138 8.06519C109.571 7.75438 108.864 7.58639 108.015 7.56123C107.182 7.51119 106.225 7.63078 105.146 7.92C103.654 8.31966 102.525 8.85369 101.757 9.52209C101.004 10.1656 100.733 10.8799 100.943 11.6649C101.101 12.2537 101.48 12.6465 102.079 12.8434C102.699 13.0351 103.696 13.0306 105.073 12.83L109.711 12.1236C111.83 11.7873 113.57 11.689 114.933 11.8288C116.296 11.9685 117.362 12.3769 118.132 13.0539C118.903 13.7309 119.456 14.6975 119.793 15.9535C120.198 17.4647 120.092 18.913 119.474 20.2984C118.871 21.6589 117.829 22.8741 116.349 23.9438C114.889 25.0083 113.069 25.8324 110.891 26.4161C108.634 27.0209 106.565 27.2282 104.684 27.038C102.822 26.8426 101.249 26.3073 99.9623 25.4319C98.6904 24.5317 97.8199 23.3241 97.3508 21.809Z" fill="#FF267E"/>
<path id="Vector_2" d="M76.7846 21.2301L92.7696 16.9469L94.0396 21.6865L78.0546 25.9696L76.7846 21.2301ZM90.8385 7.62015L92.1084 12.3597L75.7113 16.7533L77.7155 13.282L83.0951 33.3589L77.5312 34.8497L71.6152 12.771L90.8385 7.62015Z" fill="#FF267E"/>
<path id="Vector_3" d="M61.4371 39.6667C58.9446 40.3345 56.657 40.4322 54.5741 39.9596C52.4913 39.487 50.7206 38.5311 49.2622 37.0918C47.7986 35.633 46.7565 33.7456 46.136 31.4298C45.5207 29.1336 45.4821 26.9879 46.0203 24.9927C46.5584 22.9974 47.6112 21.2745 49.1787 19.8238C50.7462 18.3731 52.7762 17.3138 55.2687 16.6459C57.7415 15.9833 60.0193 15.8883 62.1022 16.3609C64.185 16.8335 65.9583 17.7993 67.4219 19.2581C68.8803 20.6973 69.9198 22.5749 70.5403 24.8907C71.1556 27.1869 71.1941 29.3326 70.656 31.3278C70.1179 33.3231 69.065 35.046 67.4975 36.4967C65.93 37.9475 63.9099 39.0041 61.4371 39.6667ZM60.2223 35.1332C62.3222 34.5705 63.7881 33.5257 64.62 31.9986C65.4715 30.4663 65.6001 28.5913 65.0059 26.3736C64.4117 24.1559 63.3628 22.5965 61.8592 21.6952C60.3753 20.7887 58.5833 20.6167 56.4834 21.1794C54.3835 21.7421 52.9078 22.7896 52.0563 24.3219C51.2048 25.8542 51.0761 27.7292 51.6704 29.9469C52.2646 32.1646 53.3135 33.724 54.8171 34.6253C56.3206 35.5266 58.1224 35.6959 60.2223 35.1332Z" fill="#FF267E"/>
<path id="Vector_4" d="M20.2264 34.9653C19.8867 33.2263 20.0516 31.6046 20.7212 30.1C21.3856 28.5757 22.4526 27.2591 23.9224 26.1501C25.4065 25.0162 27.1985 24.168 29.2985 23.6053C31.3003 23.0689 33.1284 22.9051 34.783 23.1138C36.4572 23.3173 37.8537 23.8581 38.9724 24.7363C40.1108 25.6092 40.8719 26.762 41.2558 28.1946C41.5556 29.3133 41.5399 30.4323 41.2088 31.5518C40.8724 32.6515 40.1926 33.8433 39.1694 35.1272C38.1461 36.411 36.7364 37.8615 34.94 39.4787L29.4806 44.5385L28.7623 43.1534L44.7768 38.8623L45.9679 43.3075L24.419 49.0815L23.3778 45.1956L31.3977 37.2096C32.6775 35.9412 33.6578 34.8897 34.3387 34.0552C35.0339 33.1958 35.4872 32.4538 35.6985 31.8293C35.9097 31.2047 35.9339 30.5883 35.7709 29.9799C35.6026 29.3518 35.2761 28.8398 34.7913 28.4439C34.3262 28.0426 33.7134 27.7966 32.9529 27.7059C32.1924 27.6152 31.2921 27.7092 30.2519 27.9879C29.0155 28.3192 28.0449 28.7791 27.3402 29.3676C26.6302 29.9365 26.1605 30.5777 25.931 31.2913C25.7015 32.0048 25.6448 32.7352 25.7608 33.4824L20.2264 34.9653Z" fill="#FF267E"/>
<path id="Vector_5" d="M10.6719 50.4294L6.2546 33.944L10.2582 32.8712L14.6755 49.3567L10.6719 50.4294ZM2.75869 45.8607L1.68592 41.8571L18.1714 37.4399L19.2441 41.4435L2.75869 45.8607Z" fill="#FF267E"/>
</g>
</svg>
