<svg width="302" height="91" viewBox="0 0 302 91" fill="none" xmlns="http://www.w3.org/2000/svg">
<path d="M256.494 1.30908H46.1139C21.6814 1.30908 1.875 21.1155 1.875 45.5479C1.875 69.9804 21.6814 89.7868 46.1139 89.7868H256.494C280.927 89.7868 300.733 69.9804 300.733 45.5479C300.733 21.1155 280.927 1.30908 256.494 1.30908Z" fill="#00003D"/>
<path fill-rule="evenodd" clip-rule="evenodd" d="M0.921875 45.5472C0.921875 20.5888 21.1547 0.355957 46.1132 0.355957H256.494C281.452 0.355957 301.685 20.5888 301.685 45.5472C301.685 70.5057 281.452 90.7385 256.494 90.7385H46.1132C21.1547 90.7385 0.921875 70.5057 0.921875 45.5472ZM46.1132 2.26076C22.2067 2.26076 2.82667 21.6408 2.82667 45.5472C2.82667 69.4537 22.2067 88.8337 46.1132 88.8337H256.494C280.4 88.8337 299.78 69.4537 299.78 45.5472C299.78 21.6408 280.4 2.26076 256.494 2.26076H46.1132Z" fill="#FF267E"/>
</svg>
