<svg width="154" height="40" viewBox="0 0 154 40" fill="none" xmlns="http://www.w3.org/2000/svg">
<g id="Group">
<path id="Vector" d="M54.5633 19.4693C56.2332 19.1997 57.7116 18.9071 58.9985 18.5914H73.3613V14.2787H66.4518C66.7888 13.5625 66.965 12.7616 66.965 11.8606C66.965 9.77356 65.7854 7.94069 63.4337 6.36196C61.082 4.78323 57.7422 3.55104 53.4295 2.66541C49.1092 1.77978 44.0612 1.34082 38.2931 1.34082C32.525 1.34082 27.3314 1.81059 22.9039 2.74243C18.4763 3.67426 14.968 4.97575 12.3865 6.6546C9.80505 8.33345 8.34961 10.2587 8.01256 12.4382H25.0028C25.3934 11.36 26.6114 10.4513 28.6643 9.71195C30.7096 8.97264 33.8655 8.59529 38.1246 8.59529C42.1079 8.59529 45.1566 8.94184 47.2938 9.63494C49.4233 10.328 50.4881 11.2907 50.4881 12.5306C50.4881 13.1621 50.1664 13.7473 49.5842 14.2864H1.03418V18.5991H29.4303C25.2709 18.9841 21.7625 19.4 18.9896 19.8312C16.6149 20.2009 14.6386 20.6168 13.0376 21.0634H1.03418V25.3761H7.00142C6.83289 25.9074 6.75629 26.4696 6.75629 27.0857C6.75629 29.2959 7.98958 31.2674 10.4561 32.9925C12.9227 34.7175 16.3698 36.0498 20.7973 36.9971C25.2249 37.9443 30.4108 38.4218 36.3551 38.4218C42.69 38.4218 48.1594 37.9597 52.7554 37.0433C57.3515 36.1268 60.9825 34.8176 63.6482 33.108C66.3139 31.3983 67.8076 29.4114 68.1447 27.1319H51.0703C50.3962 28.4257 48.8948 29.4268 46.5737 30.1199C44.2451 30.8131 40.8669 31.1596 36.4393 31.1596C32.2875 31.1596 29.055 30.7976 26.7263 30.066C24.3976 29.3421 23.2333 28.341 23.2333 27.078C23.2333 26.4696 23.5167 25.8997 24.0452 25.3683H73.3613V21.0557H41.6176L42.2457 20.9633C47.2325 20.4858 51.346 19.993 54.5633 19.4693Z" fill="white" stroke="#00003D" stroke-width="1.93179" stroke-miterlimit="10"/>
<path id="Vector_2" d="M93.3768 19.4693C95.0467 19.1997 96.5251 18.9071 97.812 18.5914H112.175V14.2787H105.265C105.602 13.5625 105.779 12.7616 105.779 11.8606C105.779 9.77356 104.599 7.94069 102.247 6.36196C99.8955 4.78323 96.5557 3.55104 92.2431 2.66541C87.9227 1.77978 82.8747 1.34082 77.1066 1.34082C71.3385 1.34082 66.1449 1.81059 61.7174 2.74243C57.2898 3.67426 53.7815 4.97575 51.2 6.6546C48.6185 8.33345 47.1631 10.2587 46.826 12.4382H63.8162C64.2069 11.36 65.4249 10.4513 67.4778 9.71195C69.5231 8.97264 72.679 8.59529 76.9381 8.59529C80.9213 8.59529 83.9701 8.94184 86.1073 9.63494C88.2368 10.328 89.3015 11.2907 89.3015 12.5306C89.3015 13.1621 88.9798 13.7473 88.3977 14.2864H39.8477V18.5991H68.2438C64.0844 18.9841 60.576 19.4 57.803 19.8312C55.4284 20.2009 53.4521 20.6168 51.8511 21.0634H39.8477V25.3761H45.8149C45.6464 25.9074 45.5698 26.4696 45.5698 27.0857C45.5698 29.2959 46.8031 31.2674 49.2696 32.9925C51.7362 34.7175 55.1833 36.0498 59.6108 36.9971C64.0384 37.9443 69.2243 38.4218 75.1686 38.4218C81.5035 38.4218 86.9729 37.9597 91.569 37.0433C96.1651 36.1268 99.7959 34.8176 102.462 33.108C105.127 31.3983 106.621 29.4114 106.958 27.1319H89.8837C89.2096 28.4257 87.7082 29.4268 85.3872 30.1199C83.0585 30.8131 79.6804 31.1596 75.2529 31.1596C71.1011 31.1596 67.8684 30.7976 65.5398 30.066C63.2111 29.3421 62.0467 28.341 62.0467 27.078C62.0467 26.4696 62.3302 25.8997 62.8587 25.3683H112.175V21.0557H80.4311L81.0592 20.9633C86.046 20.4858 90.1595 19.993 93.3768 19.4693Z" fill="white" stroke="#00003D" stroke-width="1.93179" stroke-miterlimit="10"/>
<path id="Vector_3" d="M133.891 19.4693C135.561 19.1997 137.04 18.9071 138.327 18.5914H152.689V14.2787H145.78C146.117 13.5625 146.293 12.7616 146.293 11.8606C146.293 9.77356 145.113 7.94069 142.762 6.36196C140.41 4.78323 137.07 3.55104 132.758 2.66541C128.437 1.77978 123.389 1.34082 117.621 1.34082C111.853 1.34082 106.66 1.81059 102.232 2.74243C97.8044 3.67426 94.2961 4.97575 91.7146 6.6546C89.1332 8.33345 87.6777 10.2587 87.3407 12.4382H104.331C104.722 11.36 105.94 10.4513 107.992 9.71195C110.038 8.97264 113.194 8.59529 117.453 8.59529C121.436 8.59529 124.485 8.94184 126.622 9.63494C128.751 10.328 129.816 11.2907 129.816 12.5306C129.816 13.1621 129.494 13.7473 128.912 14.2864H80.3623V18.5991H108.758C104.599 18.9841 101.091 19.4 98.3177 19.8312C95.943 20.2009 93.9667 20.6168 92.3657 21.0634H80.3623V25.3761H86.3295C86.161 25.9074 86.0844 26.4696 86.0844 27.0857C86.0844 29.2959 87.3177 31.2674 89.7843 32.9925C92.2508 34.7175 95.6979 36.0498 100.125 36.9971C104.553 37.9443 109.739 38.4218 115.683 38.4218C122.018 38.4218 127.488 37.9597 132.084 37.0433C136.68 36.1268 140.311 34.8176 142.976 33.108C145.642 31.3983 147.136 29.4114 147.473 27.1319H130.398C129.724 28.4257 128.223 29.4268 125.902 30.1199C123.573 30.8131 120.195 31.1596 115.767 31.1596C111.616 31.1596 108.383 30.7976 106.054 30.066C103.726 29.3421 102.561 28.341 102.561 27.078C102.561 26.4696 102.845 25.8997 103.373 25.3683H152.689V21.0557H120.946L121.574 20.9633C126.561 20.4858 130.674 19.993 133.891 19.4693Z" fill="white" stroke="#00003D" stroke-width="1.93179" stroke-miterlimit="10"/>
</g>
</svg>
