<svg width="229" height="31" viewBox="0 0 229 31" fill="none" xmlns="http://www.w3.org/2000/svg">
<g id="Group 1369">
<path id="Vector" d="M0.895921 30.9118L0.229492 1.26247L20.4523 0.808105L20.5978 7.24625L7.45305 7.5466L7.62922 15.3401L19.9314 15.0629L20.0693 21.2469L7.76705 21.5241L7.97389 30.7578L0.895921 30.9195V30.9118Z" fill="white"/>
<path id="Vector_2" d="M24.7033 30.373L24.5654 24.189L40.238 23.8347L40.1155 18.2822L23.9909 17.2502L23.7305 5.64463L28.5104 0.623493L46.3738 0.215332L46.5117 6.39934L30.839 6.75359L30.9539 11.8825L47.0786 12.9145L47.3467 24.9437L42.5667 29.9648L24.7033 30.373Z" fill="white"/>
<path id="Vector_3" d="M61.1586 30.9123L60.4922 1.26296L80.715 0.808594L80.8605 7.24674L67.7157 7.54708L67.8918 15.3406L80.1941 15.0634L80.332 21.2474L68.0297 21.5246L68.2366 30.7583L61.1586 30.92V30.9123Z" fill="white"/>
<path id="Vector_4" d="M84.966 30.373L84.8282 24.189L100.501 23.8347L100.378 18.2822L84.2537 17.2502L83.9932 5.64463L88.7731 0.623493L106.637 0.215332L106.774 6.39934L91.1018 6.75359L91.2167 11.8825L107.341 12.9145L107.609 24.9437L102.83 29.9648L84.966 30.373Z" fill="white"/>
<path id="Vector_5" d="M121.42 30.9123L120.754 1.26296L140.977 0.808594L141.122 7.24674L127.977 7.54708L128.154 15.3406L140.456 15.0634L140.594 21.2474L128.292 21.5246L128.498 30.7583L121.42 30.92V30.9123Z" fill="white"/>
<path id="Vector_6" d="M145.221 30.373L145.083 24.189L160.756 23.8347L160.633 18.2822L144.508 17.2502L144.248 5.64463L149.028 0.623493L166.891 0.215332L167.029 6.39934L151.357 6.75359L151.472 11.8825L167.596 12.9145L167.864 24.9437L163.084 29.9648L145.221 30.373Z" fill="white"/>
<path id="Vector_7" d="M181.675 30.9118L181.009 1.26247L201.232 0.808105L201.377 7.24625L188.232 7.5466L188.409 15.3401L200.711 15.0629L200.849 21.2469L188.546 21.5241L188.753 30.7578L181.675 30.9195V30.9118Z" fill="white"/>
<path id="Vector_8" d="M205.484 30.373L205.346 24.189L221.018 23.8347L220.896 18.2822L204.771 17.2502L204.511 5.64463L209.291 0.623493L227.154 0.215332L227.292 6.39934L211.619 6.75359L211.734 11.8825L227.859 12.9145L228.127 24.9437L223.347 29.9648L205.484 30.373Z" fill="white"/>
</g>
</svg>
