<svg width="188" height="167" viewBox="0 0 188 167" fill="none" xmlns="http://www.w3.org/2000/svg">
<g id="form_object_2">
<path id="Vector" d="M29.9203 43.4762L56.5649 53.7504L47.3139 35.4912L69.7972 49.9549L69.1345 32.235L85.2545 49.4247L93.2 33.9403L101.454 52.161L117.243 40.3822L116.896 57.8986L139.069 50.9633L130.15 66.1124L156.6 64.7454L139.922 76.0603L168.042 80.4463L145.177 86.7898L172.147 96.5082L145.314 97.2102L168.443 111.288L140.294 106.254L157.301 123.272L130.656 112.997L139.908 131.257L117.424 116.793L118.087 134.513L101.967 117.323L94.0214 132.807L85.767 114.587L69.9782 126.366L70.3252 108.849L48.1526 115.784L57.0712 100.635L30.6215 102.002L47.2992 90.6874L19.1796 86.3015L42.0444 79.9579L15.0739 70.2395L41.9076 69.5376L18.7782 55.4596L46.9275 60.4933L29.924 43.4783L29.9203 43.4762Z" stroke="#FF267E" stroke-width="2" stroke-miterlimit="10"/>
<g id="Group">
<path id="Vector_2" d="M91.3757 80.352L76.7804 77.3005L77.5649 73.546L92.7942 76.7271L93.8395 71.7534L71.7095 67.1305L67.2453 88.4529L74.1401 89.8964L75.7387 82.2763L90.3362 85.3241L91.3757 80.352Z" fill="#FF267E"/>
<path id="Vector_3" d="M118.79 91.9525C119.043 90.7387 118.934 89.6562 118.462 88.7088C117.987 87.7592 117.089 86.901 115.765 86.1417C114.444 85.3786 112.612 84.6558 110.271 83.9695L105.396 82.5052C103.998 82.0969 103.056 81.6814 102.579 81.2631C102.096 80.8463 101.91 80.3936 102.014 79.8972C102.157 79.2158 102.721 78.7927 103.705 78.6316C104.689 78.4705 105.96 78.554 107.514 78.8799C108.669 79.1227 109.64 79.4272 110.42 79.7986C111.199 80.1701 111.789 80.5894 112.189 81.0566C112.589 81.5239 112.782 82.0247 112.761 82.5548L119.758 84.0177C119.962 82.5984 119.628 81.2425 118.751 79.9479C117.872 78.657 116.561 77.5257 114.816 76.5577C113.071 75.5898 110.999 74.8565 108.597 74.352C106.154 73.8431 103.959 73.6548 102.018 73.795C100.076 73.9353 98.4926 74.4103 97.267 75.2202C96.0413 76.03 95.2747 77.1788 94.964 78.6548C94.5829 80.4744 95.0569 82.0832 96.3882 83.4776C97.7195 84.8719 100.079 86.062 103.468 87.0477L108.057 88.3918C109.607 88.8532 110.628 89.2944 111.118 89.7154C111.61 90.1328 111.797 90.6198 111.681 91.169C111.531 91.8901 110.927 92.33 109.871 92.4982C108.816 92.6627 107.442 92.5693 105.756 92.2164C104.535 91.9601 103.499 91.6231 102.648 91.1958C101.797 90.7685 101.152 90.2828 100.71 89.7365C100.267 89.1903 100.052 88.6079 100.064 87.999L93.031 86.5301C92.79 88.0218 93.1031 89.449 93.9781 90.8065C94.8532 92.1641 96.2098 93.3612 98.0448 94.3861C99.8835 95.4132 102.09 96.1947 104.669 96.7327C107.178 97.2551 109.442 97.4093 111.461 97.1857C113.479 96.9659 115.124 96.4086 116.403 95.5159C117.679 94.6269 118.473 93.4301 118.785 91.935L118.79 91.9525Z" fill="#FF267E"/>
</g>
</g>
</svg>
