<svg width="67" height="4" viewBox="0 0 67 4" fill="none" xmlns="http://www.w3.org/2000/svg">
<path fill-rule="evenodd" clip-rule="evenodd" d="M1.41365 0.542468C1.81478 0.406925 2.3051 0.339844 2.80002 0.339844H63.93C64.4288 0.339844 64.92 0.406638 65.3215 0.542912C65.5172 0.609348 65.747 0.710734 65.9481 0.872099C66.1395 1.02571 66.44 1.34953 66.44 1.84984C66.44 2.35581 66.1324 2.68007 65.9428 2.8307C65.7415 2.99054 65.5118 3.09118 65.3164 3.15722C64.9153 3.29276 64.4249 3.35984 63.93 3.35984H2.80002C2.30124 3.35984 1.81004 3.29305 1.40859 3.15677C1.21287 3.09034 0.983056 2.98895 0.78197 2.82758C0.590544 2.67396 0.290039 2.35014 0.290039 1.84984C0.290039 1.3439 0.597629 1.01964 0.787276 0.868997C0.988507 0.709156 1.21821 0.60851 1.41365 0.542468Z" fill="#FF267E"/>
<path d="M63.93 2.35984H2.80002C1.96002 2.35984 1.29004 2.12984 1.29004 1.84984C1.29004 1.56984 1.97002 1.33984 2.80002 1.33984H63.93C64.77 1.33984 65.44 1.56984 65.44 1.84984C65.44 2.12984 64.76 2.35984 63.93 2.35984Z" fill="#010149"/>
</svg>
