<svg width="81" height="58" viewBox="0 0 81 58" fill="none" xmlns="http://www.w3.org/2000/svg">
<g id="Group">
<path id="Vector" d="M2.33105 17.7398H11.8692L15.0455 14.5607H18.2218L21.3981 11.3816H27.7507L30.9363 8.20245H34.1125L40.4651 1.84424H46.8177L50.0033 5.02336V8.20245L43.6414 14.5607V17.7398H75.4229L78.5992 20.9282V24.1074L75.4229 27.2865H59.5322V33.6447L56.3559 36.8238V43.1913L53.1796 46.3705V49.5496L50.0033 52.7287L46.8177 55.9078H24.5744L21.3981 52.7287H11.8692L8.68363 49.5496H2.33105V17.7398Z" fill="#FF267E"/>
<g id="Group_2">
<path id="Vector_2" d="M80.1826 22.5131V19.334H77.0063V22.5131H80.1826Z" fill="#000055"/>
<path id="Vector_3" d="M80.1924 25.6923V22.5132H77.0161V25.6923H80.1924Z" fill="#000055"/>
<path id="Vector_4" d="M77.0068 19.3339V16.1548L35.6965 16.1548V19.3339L77.0068 19.3339Z" fill="#000055"/>
<path id="Vector_5" d="M77.0068 28.8808V25.7017H48.411V28.8808H77.0068Z" fill="#000055"/>
<path id="Vector_6" d="M61.125 32.0502V28.8711H57.9487V32.0502H61.125Z" fill="#000055"/>
<path id="Vector_7" d="M61.1152 35.2299V32.0508H57.939V35.2299H61.1152Z" fill="#000055"/>
<path id="Vector_8" d="M57.9395 38.4184V35.2393H45.225V38.4184H57.9395Z" fill="#000055"/>
<path id="Vector_9" d="M57.9395 41.5971V38.418H54.7632V41.5971H57.9395Z" fill="#000055"/>
<path id="Vector_10" d="M57.9395 44.7763V41.5972H54.7632V44.7763H57.9395Z" fill="#000055"/>
<path id="Vector_11" d="M54.7725 47.9555V44.7764H42.058V47.9555H54.7725Z" fill="#000055"/>
<path id="Vector_12" d="M54.7725 51.1342V47.9551H51.5962V51.1342H54.7725Z" fill="#000055"/>
<path id="Vector_13" d="M51.5869 54.3227V51.1436H48.4107V54.3227H51.5869Z" fill="#000055"/>
<path id="Vector_14" d="M48.4102 57.5024V54.3232H22.9905V57.5024H48.4102Z" fill="#000055"/>
<path id="Vector_15" d="M22.9814 54.3227V51.1436H10.267V54.3227H22.9814Z" fill="#000055"/>
<path id="Vector_16" d="M10.2764 51.144V47.9648H0.747499V51.144H10.2764Z" fill="#000055"/>
<path id="Vector_17" d="M48.4102 12.976V9.79688H45.2339V12.976H48.4102Z" fill="#000055"/>
<path id="Vector_18" d="M51.5869 9.78744V3.4292H48.4107V9.78744H51.5869Z" fill="#000055"/>
<path id="Vector_19" d="M48.4102 3.4291V0.25L38.8813 0.25V3.4291L48.4102 3.4291Z" fill="#000055"/>
<path id="Vector_20" d="M38.8818 6.6083V3.4292H35.7055V6.6083H38.8818Z" fill="#000055"/>
<path id="Vector_21" d="M35.6963 9.79629V6.61719H29.3437V9.79629H35.6963Z" fill="#000055"/>
<path id="Vector_22" d="M29.3438 12.976V9.79688H19.8149V12.976H29.3438Z" fill="#000055"/>
<path id="Vector_23" d="M19.8145 16.1547V12.9756H13.4619V16.1547H19.8145Z" fill="#000055"/>
<path id="Vector_24" d="M13.4531 19.3339V16.1548H0.738643V19.3339H13.4531Z" fill="#000055"/>
<path id="Vector_25" d="M3.91504 51.1437L3.91504 16.1548H0.738778L0.738778 51.1437H3.91504Z" fill="#000055"/>
<path id="Vector_26" d="M45.2246 16.1547V12.9756H42.0483V16.1547H45.2246Z" fill="#000055"/>
</g>
</g>
</svg>
