<svg width="251" height="54" viewBox="0 0 251 54" fill="none" xmlns="http://www.w3.org/2000/svg">
<g id="Group">
<g id="Group_2">
<path id="Vector" d="M249.038 16.2652H240.163L237.201 13.3129H234.249L231.288 10.3516H225.374L222.422 7.39025H219.46L213.547 1.47656H207.633L204.672 4.43788V7.39025L210.585 13.3129V16.2652H181.008L178.056 19.2266V22.1789L181.008 25.1402H195.797V31.0539L198.758 34.0153V39.9289L201.71 42.8902V45.8426L204.672 48.8039L207.633 51.7563H228.335L231.288 48.8039H240.163L243.124 45.8426H249.038V16.2652Z" fill="#FF267E"/>
<g id="Group_3">
<path id="Vector_2" d="M179.522 20.7025V17.7412H176.561V20.7025H179.522Z" fill="#000055"/>
<path id="Vector_3" d="M179.532 23.6635V20.7021H176.571V23.6635H179.532Z" fill="#000055"/>
<path id="Vector_4" d="M217.984 17.7504V14.7891L179.532 14.7891V17.7504L217.984 17.7504Z" fill="#000055"/>
<path id="Vector_5" d="M206.157 26.6249V23.6636H179.541V26.6249H206.157Z" fill="#000055"/>
<path id="Vector_6" d="M197.282 29.5863V26.625H194.321V29.5863H197.282Z" fill="#000055"/>
<path id="Vector_7" d="M197.272 32.5385V29.5771H194.311V32.5385H197.272Z" fill="#000055"/>
<path id="Vector_8" d="M209.101 35.4911V32.5298H197.273V35.4911H209.101Z" fill="#000055"/>
<path id="Vector_9" d="M200.234 38.4525V35.4912H197.273V38.4525H200.234Z" fill="#000055"/>
<path id="Vector_10" d="M200.234 41.4047V38.4434H197.273V41.4047H200.234Z" fill="#000055"/>
<path id="Vector_11" d="M212.07 44.3661V41.4048H200.243V44.3661H212.07Z" fill="#000055"/>
<path id="Vector_12" d="M203.195 47.3275V44.3662H200.234V47.3275H203.195Z" fill="#000055"/>
<path id="Vector_13" d="M206.147 50.2885V47.3271H203.186V50.2885H206.147Z" fill="#000055"/>
<path id="Vector_14" d="M229.812 53.2411V50.2798H206.148V53.2411H229.812Z" fill="#000055"/>
<path id="Vector_15" d="M241.639 50.2885V47.3271H229.811V50.2885H241.639Z" fill="#000055"/>
<path id="Vector_16" d="M250.522 47.3275V44.3662H241.647V47.3275H250.522Z" fill="#000055"/>
<path id="Vector_17" d="M209.109 11.8363V8.875H206.148V11.8363H209.109Z" fill="#000055"/>
<path id="Vector_18" d="M206.147 8.86585V2.95215H203.186V8.86585H206.147Z" fill="#000055"/>
<path id="Vector_19" d="M215.022 2.96134V0L206.147 0V2.96134L215.022 2.96134Z" fill="#000055"/>
<path id="Vector_20" d="M217.976 5.92274V2.96143H215.014V5.92274H217.976Z" fill="#000055"/>
<path id="Vector_21" d="M223.897 8.87489V5.91357H217.984V8.87489H223.897Z" fill="#000055"/>
<path id="Vector_22" d="M232.772 11.8275V8.86621H223.897V11.8275H232.772Z" fill="#000055"/>
<path id="Vector_23" d="M238.687 14.7973V11.8359H232.773V14.7973H238.687Z" fill="#000055"/>
<path id="Vector_24" d="M250.514 17.7504V14.7891H238.686V17.7504H250.514Z" fill="#000055"/>
<path id="Vector_25" d="M250.514 47.3277V14.7891H247.552V47.3277H250.514Z" fill="#000055"/>
<path id="Vector_26" d="M212.07 14.7973V11.8359H209.109V14.7973H212.07Z" fill="#000055"/>
</g>
</g>
<g id="Group_4">
<path id="Vector_27" d="M161.549 16.2652H152.674L149.722 13.3129H146.761L143.808 10.3516H137.886L134.933 7.39025H131.972L126.058 1.47656H120.145L117.183 4.43788V7.39025L123.097 13.3129V16.2652H93.5287L90.5674 19.2266V22.1789L93.5287 25.1402H108.308V31.0539L111.27 34.0153V39.9289L114.231 42.8902V45.8426L117.183 48.8039L120.145 51.7563H140.847L143.808 48.8039H152.674L155.636 45.8426H161.549V16.2652Z" fill="#FF267E"/>
<g id="Group_5">
<path id="Vector_28" d="M92.043 20.7113V17.75H89.0817V20.7113H92.043Z" fill="#000055"/>
<path id="Vector_29" d="M92.043 23.6728V20.7114H89.0817V23.6728H92.043Z" fill="#000055"/>
<path id="Vector_30" d="M130.496 17.7504V14.7891L92.0437 14.7891V17.7504L130.496 17.7504Z" fill="#000055"/>
<path id="Vector_31" d="M118.668 26.6249V23.6636H92.0519V26.6249H118.668Z" fill="#000055"/>
<path id="Vector_32" d="M109.793 29.5775V26.6162H106.832V29.5775H109.793Z" fill="#000055"/>
<path id="Vector_33" d="M109.793 32.5385V29.5771H106.832V32.5385H109.793Z" fill="#000055"/>
<path id="Vector_34" d="M121.621 35.4999V32.5386H109.794V35.4999H121.621Z" fill="#000055"/>
<path id="Vector_35" d="M112.755 38.4525V35.4912H109.794V38.4525H112.755Z" fill="#000055"/>
<path id="Vector_36" d="M112.746 41.4135V38.4521H109.785V41.4135H112.746Z" fill="#000055"/>
<path id="Vector_37" d="M124.582 44.3661V41.4048H112.755V44.3661H124.582Z" fill="#000055"/>
<path id="Vector_38" d="M115.707 47.3275V44.3662H112.746V47.3275H115.707Z" fill="#000055"/>
<path id="Vector_39" d="M118.659 50.2885V47.3271H115.698V50.2885H118.659Z" fill="#000055"/>
<path id="Vector_40" d="M142.323 53.2411V50.2798H118.66V53.2411H142.323Z" fill="#000055"/>
<path id="Vector_41" d="M154.15 50.2797V47.3184H142.323V50.2797H154.15Z" fill="#000055"/>
<path id="Vector_42" d="M163.034 47.3275V44.3662H154.159V47.3275H163.034Z" fill="#000055"/>
<path id="Vector_43" d="M121.621 11.8363V8.875H118.66V11.8363H121.621Z" fill="#000055"/>
<path id="Vector_44" d="M118.659 8.87511V2.96143H115.698V8.87511H118.659Z" fill="#000055"/>
<path id="Vector_45" d="M127.543 2.96133V0L118.668 0V2.96133L127.543 2.96133Z" fill="#000055"/>
<path id="Vector_46" d="M130.496 5.91348V2.95215H127.535V5.91348H130.496Z" fill="#000055"/>
<path id="Vector_47" d="M136.409 8.87491V5.91357H130.495V8.87491H136.409Z" fill="#000055"/>
<path id="Vector_48" d="M145.284 11.8363V8.875H136.409V11.8363H145.284Z" fill="#000055"/>
<path id="Vector_49" d="M151.198 14.7885V11.8271H145.285V14.7885H151.198Z" fill="#000055"/>
<path id="Vector_50" d="M163.034 17.7504V14.7891H151.207V17.7504H163.034Z" fill="#000055"/>
<path id="Vector_51" d="M163.025 47.3277V14.7891H160.064V47.3277H163.025Z" fill="#000055"/>
<path id="Vector_52" d="M124.582 14.7885V11.8271H121.621V14.7885H124.582Z" fill="#000055"/>
</g>
</g>
<g id="Group_6">
<path id="Vector_53" d="M72.4774 16.2652H63.6024L60.6411 13.3129H57.6887L54.7274 10.3516H48.8137L45.8524 7.39025H42.9L36.9863 1.47656H31.0637L28.1113 4.43788V7.39025L34.025 13.3129V16.2652H4.44764L1.48633 19.2266V22.1789L4.44764 25.1402H19.2363V31.0539L22.1976 34.0153V39.9289L25.15 42.8902V45.8426L28.1113 48.8039L31.0637 51.7563H51.775L54.7274 48.8039H63.6024L66.5637 45.8426H72.4774V16.2652Z" fill="#FF267E"/>
<g id="Group_7">
<path id="Vector_54" d="M2.96191 20.7025V17.7412H0.000600576V20.7025H2.96191Z" fill="#000055"/>
<path id="Vector_55" d="M2.97168 23.6635V20.7021H0.0103629V23.6635H2.97168Z" fill="#000055"/>
<path id="Vector_56" d="M41.4238 17.7504V14.7891L2.97145 14.7891V17.7504L41.4238 17.7504Z" fill="#000055"/>
<path id="Vector_57" d="M29.5967 26.6249V23.6636H2.98063V26.6249H29.5967Z" fill="#000055"/>
<path id="Vector_58" d="M20.7217 29.5863V26.625H17.7604V29.5863H20.7217Z" fill="#000055"/>
<path id="Vector_59" d="M20.7119 32.5385V29.5771H17.7506V32.5385H20.7119Z" fill="#000055"/>
<path id="Vector_60" d="M32.54 35.4911V32.5298H20.7127V35.4911H32.54Z" fill="#000055"/>
<path id="Vector_61" d="M23.6738 38.4525V35.4912H20.7125V38.4525H23.6738Z" fill="#000055"/>
<path id="Vector_62" d="M23.6738 41.4047V38.4434H20.7125V41.4047H23.6738Z" fill="#000055"/>
<path id="Vector_63" d="M35.5098 44.3754V41.4141H23.6824V44.3754H35.5098Z" fill="#000055"/>
<path id="Vector_64" d="M26.626 47.3275V44.3662H23.6647V47.3275H26.626Z" fill="#000055"/>
<path id="Vector_65" d="M29.5869 50.2885V47.3271H26.6256V50.2885H29.5869Z" fill="#000055"/>
<path id="Vector_66" d="M53.251 53.2411V50.2798H29.5873V53.2411H53.251Z" fill="#000055"/>
<path id="Vector_67" d="M65.0781 50.2885V47.3271H53.2508V50.2885H65.0781Z" fill="#000055"/>
<path id="Vector_68" d="M73.9531 47.3275V44.3662H65.0781V47.3275H73.9531Z" fill="#000055"/>
<path id="Vector_69" d="M32.5488 11.8363V8.875H29.5875V11.8363H32.5488Z" fill="#000055"/>
<path id="Vector_70" d="M29.5869 8.86583V2.95215H26.6256V8.86583H29.5869Z" fill="#000055"/>
<path id="Vector_71" d="M38.4619 2.96131V0L29.5869 0V2.96131L38.4619 2.96131Z" fill="#000055"/>
<path id="Vector_72" d="M41.415 5.92274V2.96143H38.4537V5.92274H41.415Z" fill="#000055"/>
<path id="Vector_73" d="M47.3369 8.87489V5.91357H41.4232V8.87489H47.3369Z" fill="#000055"/>
<path id="Vector_74" d="M56.2119 11.8363V8.875H47.3369V11.8363H56.2119Z" fill="#000055"/>
<path id="Vector_75" d="M62.126 14.7973V11.8359H56.2123V14.7973H62.126Z" fill="#000055"/>
<path id="Vector_76" d="M73.9531 17.7504V14.7891H62.1258V17.7504H73.9531Z" fill="#000055"/>
<path id="Vector_77" d="M73.9531 47.3277V14.7891H70.9918V47.3277H73.9531Z" fill="#000055"/>
<path id="Vector_78" d="M35.5098 14.7973V11.8359H32.5484V14.7973H35.5098Z" fill="#000055"/>
</g>
</g>
</g>
</svg>
