<svg width="227" height="145" viewBox="0 0 227 145" fill="none" xmlns="http://www.w3.org/2000/svg">
<g id="Group">
<path id="Vector" d="M10.8336 68.3658L49.3818 62.3099L25.9605 46.9981L62.4468 48.7559L49.5566 28.2058L80.3754 37.5494L79.1988 13.7582L101.414 29.7066L112.05 4.9402L123.607 25.9399L145.106 2.5459L144.902 26.6057L175.267 6.88483L163.262 31.7096L199.532 17.665L176.81 40.8313L215.364 33.8937L184.091 53.089L221.078 53.9474L184.33 67.2445L216.081 75.7764L177.532 81.8322L200.954 97.1441L164.467 95.3863L177.358 115.936L146.539 106.593L147.715 130.384L125.5 114.436L114.864 139.202L103.307 118.202L81.8083 141.596L82.0121 117.536L51.6477 137.257L63.6525 112.433L27.3817 126.477L50.1041 103.311L11.55 110.248L42.8232 91.0532L5.83594 90.1947L42.5843 76.8976L10.8394 68.3658H10.8336Z" fill="#00003D"/>
<path id="Vector (Stroke)" fill-rule="evenodd" clip-rule="evenodd" d="M146.109 0L145.899 24.7851L177.683 4.1421L165.231 29.8925L203.418 15.1057L179.67 39.3177L220.324 32.0023L187.444 52.1837L226.346 53.0865L187.601 67.1061L220.807 76.029L180.207 82.4072L204.517 98.3002L166.299 96.459L179.585 117.64L147.588 107.939L148.796 132.371L125.919 115.948L114.971 141.439L103.104 119.875L80.802 144.143L81.012 119.357L49.2277 140L61.6801 114.25L23.4926 129.037L47.2407 104.825L6.58734 112.14L39.4671 91.9589L0.56543 91.056L39.3106 77.0364L10.5827 69.3153L10.7739 68.604L10.6795 67.3948L46.7045 61.7353L22.3941 45.8423L60.612 47.6835L47.3263 26.503L79.323 36.2037L78.1146 11.7711L100.992 28.1947L111.94 2.7031L123.807 24.2677L146.109 0ZM15.5629 68.6179L45.8549 76.7593L11.1033 89.3339L46.1761 90.1479L16.5096 108.357L52.9644 101.797L31.2677 123.918L65.6218 110.615L54.0645 134.515L83.0091 115.716L82.8114 139.05L103.508 116.53L114.753 136.965L125.078 112.924L146.631 128.397L145.486 105.247L175.127 114.234L162.633 94.3139L197.387 95.9883L174.855 81.2576L211.351 75.5241L181.056 67.3833L215.808 54.8087L180.735 53.9946L210.401 35.7855L173.947 42.3454L195.643 20.2247L161.289 33.5272L172.847 9.62797L143.902 28.4266L144.1 5.09219L123.403 27.6126L112.158 7.17769L101.833 31.2189L80.2798 15.7458L81.4247 38.8954L51.7837 29.9089L64.2784 49.8286L29.5237 48.1543L52.0561 62.8849L15.5629 68.6179Z" fill="#FF267E"/>
</g>
</svg>
