<svg width="1920" height="910" viewBox="0 0 1920 910" fill="none" xmlns="http://www.w3.org/2000/svg">
<path fill-rule="evenodd" clip-rule="evenodd" d="M-11 0.75293H-11.5V1.25293V909.493V909.993H-11H958.107H958.393H958.607H958.893H1928H1928.5V909.493V1.25293V0.75293H1928H958.893H958.607H958.393H958.107H-11ZM-10.5 908.993V840.127H49.087V908.993H-10.5ZM49.087 839.127H-10.5V770.262H49.087V839.127ZM49.087 769.262H-10.5V700.397H49.087V769.262ZM-10.5 630.536V699.397H49.087V630.536H-10.5ZM-10.5 629.536V560.671H49.087V629.536H-10.5ZM-10.5 490.806V559.671H49.087V490.806H-10.5ZM-10.5 489.806V420.94H49.087V489.806H-10.5ZM-10.5 351.075V419.94H49.087V351.075H-10.5ZM-10.5 350.075V281.209H49.087V350.075H-10.5ZM-10.5 211.349V280.209H49.087V211.349H-10.5ZM-10.5 210.349V141.484H49.087V210.349H-10.5ZM-10.5 71.6183V140.484H49.087V71.6183H-10.5ZM-10.5 70.6183V1.75293H49.087V70.6183H-10.5ZM50.087 71.6183V140.484H109.674V71.6183H50.087ZM109.674 70.6183H50.087V1.75293H109.674V70.6183ZM110.674 71.6183V140.484H170.261V71.6183H110.674ZM170.261 70.6183H110.674V1.75293H170.261V70.6183ZM171.261 71.6183V140.484H230.848V71.6183H171.261ZM230.848 70.6183H171.261V1.75293H230.848V70.6183ZM231.848 71.6183V140.484H291.435V71.6183H231.848ZM291.435 70.6183H231.848V1.75293H291.435V70.6183ZM292.435 71.6183V140.484H352.022V71.6183H292.435ZM352.022 70.6183H292.435V1.75293H352.022V70.6183ZM353.022 71.6183V140.484H412.609V71.6183H353.022ZM412.609 70.6183H353.022V1.75293H412.609V70.6183ZM413.609 71.6183V140.484H473.196V71.6183H413.609ZM473.196 70.6183H413.609V1.75293H473.196V70.6183ZM474.196 71.6183V140.484H533.783V71.6183H474.196ZM533.783 70.6183H474.196V1.75293H533.783V70.6183ZM534.783 71.6183V140.484H594.37V71.6183H534.783ZM594.37 70.6183H534.783V1.75293H594.37V70.6183ZM595.37 71.6183V140.484H654.957V71.6183H595.37ZM654.957 70.6183H595.37V1.75293H654.957V70.6183ZM655.957 71.6183V140.484H715.544V71.6183H655.957ZM715.544 70.6183H655.957V1.75293H715.544V70.6183ZM716.544 71.6183V140.484H776.131V71.6183H716.544ZM776.131 70.6183H716.544V1.75293H776.131V70.6183ZM777.131 71.6183V140.484H836.719V71.6183H777.131ZM836.719 70.6183H777.131V1.75293H836.719V70.6183ZM837.719 71.6183V140.484H897.306V71.6183H837.719ZM897.306 70.6183H837.719V1.75293H897.306V70.6183ZM898.306 71.6183V140.484H957.893V71.6183H898.306ZM957.893 70.6183H898.306V1.75293H957.893V70.6183ZM50.087 210.349V141.484H109.674V210.349H50.087ZM110.674 210.349V141.484H170.261V210.349H110.674ZM171.261 210.349V141.484H230.848V210.349H171.261ZM231.848 210.349V141.484H291.435V210.349H231.848ZM292.435 210.349V141.484H352.022V210.349H292.435ZM353.022 210.349V141.484H412.609V210.349H353.022ZM413.609 210.349V141.484H473.196V210.349H413.609ZM474.196 210.349V141.484H533.783V210.349H474.196ZM534.783 210.349V141.484H594.37V210.349H534.783ZM595.37 210.349V141.484H654.957V210.349H595.37ZM655.957 210.349V141.484H715.544V210.349H655.957ZM716.544 210.349V141.484H776.131V210.349H716.544ZM777.131 210.349V141.484H836.719V210.349H777.131ZM837.719 210.349V141.484H897.306V210.349H837.719ZM898.306 210.349V141.484H957.893V210.349H898.306ZM50.087 211.349V280.209H109.674V211.349H50.087ZM110.674 211.349V280.209H170.261V211.349H110.674ZM171.261 211.349V280.209H230.848V211.349H171.261ZM231.848 211.349V280.209H291.435V211.349H231.848ZM292.435 211.349V280.209H352.022V211.349H292.435ZM353.022 211.349V280.209H412.609V211.349H353.022ZM413.609 211.349V280.209H473.196V211.349H413.609ZM474.196 211.349V280.209H533.783V211.349H474.196ZM534.783 211.349V280.209H594.37V211.349H534.783ZM595.37 211.349V280.209H654.957V211.349H595.37ZM655.957 211.349V280.209H715.544V211.349H655.957ZM716.544 211.349V280.209H776.131V211.349H716.544ZM777.131 211.349V280.209H836.719V211.349H777.131ZM837.719 211.349V280.209H897.306V211.349H837.719ZM898.306 211.349V280.209H957.893V211.349H898.306ZM50.087 350.075V281.209H109.674V350.075H50.087ZM110.674 350.075V281.209H170.261V350.075H110.674ZM171.261 350.075V281.209H230.848V350.075H171.261ZM231.848 350.075V281.209H291.435V350.075H231.848ZM292.435 350.075V281.209H352.022V350.075H292.435ZM353.022 350.075V281.209H412.609V350.075H353.022ZM413.609 350.075V281.209H473.196V350.075H413.609ZM474.196 350.075V281.209H533.783V350.075H474.196ZM534.783 350.075V281.209H594.37V350.075H534.783ZM595.37 350.075V281.209H654.957V350.075H595.37ZM655.957 350.075V281.209H715.544V350.075H655.957ZM716.544 350.075V281.209H776.131V350.075H716.544ZM777.131 350.075V281.209H836.719V350.075H777.131ZM837.719 350.075V281.209H897.306V350.075H837.719ZM898.306 350.075V281.209H957.893V350.075H898.306ZM50.087 351.075V419.94H109.674V351.075H50.087ZM110.674 351.075V419.94H170.261V351.075H110.674ZM171.261 351.075V419.94H230.848V351.075H171.261ZM231.848 351.075V419.94H291.435V351.075H231.848ZM292.435 351.075V419.94H352.022V351.075H292.435ZM353.022 351.075V419.94H412.609V351.075H353.022ZM413.609 351.075V419.94H473.196V351.075H413.609ZM474.196 351.075V419.94H533.783V351.075H474.196ZM534.783 351.075V419.94H594.37V351.075H534.783ZM595.37 351.075V419.94H654.957V351.075H595.37ZM655.957 351.075V419.94H715.544V351.075H655.957ZM716.544 351.075V419.94H776.131V351.075H716.544ZM777.131 351.075V419.94H836.719V351.075H777.131ZM837.719 351.075V419.94H897.306V351.075H837.719ZM898.306 351.075V419.94H957.893V351.075H898.306ZM50.087 489.806V420.94H109.674V489.806H50.087ZM110.674 489.806V420.94H170.261V489.806H110.674ZM171.261 489.806V420.94H230.848V489.806H171.261ZM231.848 489.806V420.94H291.435V489.806H231.848ZM292.435 489.806V420.94H352.022V489.806H292.435ZM353.022 489.806V420.94H412.609V489.806H353.022ZM413.609 489.806V420.94H473.196V489.806H413.609ZM474.196 489.806V420.94H533.783V489.806H474.196ZM534.783 489.806V420.94H594.37V489.806H534.783ZM595.37 489.806V420.94H654.957V489.806H595.37ZM655.957 489.806V420.94H715.544V489.806H655.957ZM716.544 489.806V420.94H776.131V489.806H716.544ZM777.131 489.806V420.94H836.719V489.806H777.131ZM837.719 489.806V420.94H897.306V489.806H837.719ZM898.306 489.806V420.94H957.893V489.806H898.306ZM50.087 490.806V559.671H109.674V490.806H50.087ZM110.674 490.806V559.671H170.261V490.806H110.674ZM171.261 490.806V559.671H230.848V490.806H171.261ZM231.848 490.806V559.671H291.435V490.806H231.848ZM292.435 490.806V559.671H352.022V490.806H292.435ZM353.022 490.806V559.671H412.609V490.806H353.022ZM413.609 490.806V559.671H473.196V490.806H413.609ZM474.196 490.806V559.671H533.783V490.806H474.196ZM534.783 490.806V559.671H594.37V490.806H534.783ZM595.37 490.806V559.671H654.957V490.806H595.37ZM655.957 490.806V559.671H715.544V490.806H655.957ZM716.544 490.806V559.671H776.131V490.806H716.544ZM777.131 490.806V559.671H836.719V490.806H777.131ZM837.719 490.806V559.671H897.306V490.806H837.719ZM898.306 490.806V559.671H957.893V490.806H898.306ZM50.087 629.536V560.671H109.674V629.536H50.087ZM110.674 629.536V560.671H170.261V629.536H110.674ZM171.261 629.536V560.671H230.848V629.536H171.261ZM231.848 629.536V560.671H291.435V629.536H231.848ZM292.435 629.536V560.671H352.022V629.536H292.435ZM353.022 629.536V560.671H412.609V629.536H353.022ZM413.609 629.536V560.671H473.196V629.536H413.609ZM474.196 629.536V560.671H533.783V629.536H474.196ZM534.783 629.536V560.671H594.37V629.536H534.783ZM595.37 629.536V560.671H654.957V629.536H595.37ZM655.957 629.536V560.671H715.544V629.536H655.957ZM716.544 629.536V560.671H776.131V629.536H716.544ZM777.131 629.536V560.671H836.719V629.536H777.131ZM837.719 629.536V560.671H897.306V629.536H837.719ZM898.306 629.536V560.671H957.893V629.536H898.306ZM50.087 630.536V699.397H109.674V630.536H50.087ZM110.674 630.536V699.397H170.261V630.536H110.674ZM171.261 630.536V699.397H230.848V630.536H171.261ZM231.848 630.536V699.397H291.435V630.536H231.848ZM292.435 630.536V699.397H352.022V630.536H292.435ZM353.022 630.536V699.397H412.609V630.536H353.022ZM413.609 630.536V699.397H473.196V630.536H413.609ZM474.196 630.536V699.397H533.783V630.536H474.196ZM534.783 630.536V699.397H594.37V630.536H534.783ZM595.37 630.536V699.397H654.957V630.536H595.37ZM655.957 630.536V699.397H715.544V630.536H655.957ZM716.544 630.536V699.397H776.131V630.536H716.544ZM777.131 630.536V699.397H836.719V630.536H777.131ZM837.719 630.536V699.397H897.306V630.536H837.719ZM898.306 630.536V699.397H957.893V630.536H898.306ZM50.087 769.262V700.397H109.674V769.262H50.087ZM110.674 769.262V700.397H170.261V769.262H110.674ZM171.261 769.262V700.397H230.848V769.262H171.261ZM231.848 769.262V700.397H291.435V769.262H231.848ZM292.435 769.262V700.397H352.022V769.262H292.435ZM353.022 769.262V700.397H412.609V769.262H353.022ZM413.609 769.262V700.397H473.196V769.262H413.609ZM474.196 769.262V700.397H533.783V769.262H474.196ZM534.783 769.262V700.397H594.37V769.262H534.783ZM595.37 769.262V700.397H654.957V769.262H595.37ZM655.957 769.262V700.397H715.544V769.262H655.957ZM716.544 769.262V700.397H776.131V769.262H716.544ZM777.131 769.262V700.397H836.719V769.262H777.131ZM837.719 769.262V700.397H897.306V769.262H837.719ZM898.306 769.262V700.397H957.893V769.262H898.306ZM50.087 770.262V839.127H109.674V770.262H50.087ZM110.674 770.262V839.127H170.261V770.262H110.674ZM171.261 770.262V839.127H230.848V770.262H171.261ZM231.848 770.262V839.127H291.435V770.262H231.848ZM292.435 770.262V839.127H352.022V770.262H292.435ZM353.022 770.262V839.127H412.609V770.262H353.022ZM413.609 770.262V839.127H473.196V770.262H413.609ZM474.196 770.262V839.127H533.783V770.262H474.196ZM534.783 770.262V839.127H594.37V770.262H534.783ZM595.37 770.262V839.127H654.957V770.262H595.37ZM655.957 770.262V839.127H715.544V770.262H655.957ZM716.544 770.262V839.127H776.131V770.262H716.544ZM777.131 770.262V839.127H836.719V770.262H777.131ZM837.719 770.262V839.127H897.306V770.262H837.719ZM898.306 770.262V839.127H957.893V770.262H898.306ZM50.087 908.993V840.127H109.674V908.993H50.087ZM110.674 908.993V840.127H170.261V908.993H110.674ZM171.261 908.993V840.127H230.848V908.993H171.261ZM231.848 908.993V840.127H291.435V908.993H231.848ZM292.435 908.993V840.127H352.022V908.993H292.435ZM353.022 908.993V840.127H412.609V908.993H353.022ZM413.609 908.993V840.127H473.196V908.993H413.609ZM474.196 908.993V840.127H533.783V908.993H474.196ZM534.783 908.993V840.127H594.37V908.993H534.783ZM595.37 908.993V840.127H654.957V908.993H595.37ZM655.957 908.993V840.127H715.544V908.993H655.957ZM716.544 908.993V840.127H776.131V908.993H716.544ZM777.131 908.993V840.127H836.719V908.993H777.131ZM837.719 908.993V840.127H897.306V908.993H837.719ZM898.306 908.993V840.127H957.893V908.993H898.306ZM959.107 770.262V839.127H1018.69V770.262H959.107ZM959.107 769.262H1018.69V700.397H959.107V769.262ZM959.107 699.397H1018.69V630.536H959.107V699.397ZM959.107 629.536V560.671H1018.69V629.536H959.107ZM959.107 490.806V559.671H1018.69V490.806H959.107ZM959.107 489.806V420.94H1018.69V489.806H959.107ZM959.107 351.075V419.94H1018.69V351.075H959.107ZM959.107 350.075V281.209H1018.69V350.075H959.107ZM959.107 211.349V280.209H1018.69V211.349H959.107ZM959.107 210.349V141.484H1018.69V210.349H959.107ZM959.107 71.6183V140.484H1018.69V71.6183H959.107ZM959.107 70.6183V1.75293H1018.69V70.6183H959.107ZM1019.69 71.6183V140.484H1079.28V71.6183H1019.69ZM1079.28 70.6183H1019.69V1.75293H1079.28V70.6183ZM1080.28 71.6183V140.484H1139.87V71.6183H1080.28ZM1139.87 70.6183H1080.28V1.75293H1139.87V70.6183ZM1140.87 71.6183V140.484H1200.46V71.6183H1140.87ZM1200.46 70.6183H1140.87V1.75293H1200.46V70.6183ZM1201.46 71.6183V140.484H1261.04V71.6183H1201.46ZM1261.04 70.6183H1201.46V1.75293H1261.04V70.6183ZM1262.04 71.6183V140.484H1321.63V71.6183H1262.04ZM1321.63 70.6183H1262.04V1.75293H1321.63V70.6183ZM1322.63 71.6183V140.484H1382.22V71.6183H1322.63ZM1382.22 70.6183H1322.63V1.75293H1382.22V70.6183ZM1383.22 71.6183V140.484H1442.8V71.6183H1383.22ZM1442.8 70.6183H1383.22V1.75293H1442.8V70.6183ZM1443.8 71.6183V140.484H1503.39V71.6183H1443.8ZM1503.39 70.6183H1443.8V1.75293H1503.39V70.6183ZM1504.39 71.6183V140.484H1563.98V71.6183H1504.39ZM1563.98 70.6183H1504.39V1.75293H1563.98V70.6183ZM1564.98 71.6183V140.484H1624.56V71.6183H1564.98ZM1624.56 70.6183H1564.98V1.75293H1624.56V70.6183ZM1625.56 71.6183V140.484H1685.15V71.6183H1625.56ZM1685.15 70.6183H1625.56V1.75293H1685.15V70.6183ZM1686.15 71.6183V140.484H1745.74V71.6183H1686.15ZM1745.74 70.6183H1686.15V1.75293H1745.74V70.6183ZM1746.74 71.6183V140.484H1806.33V71.6183H1746.74ZM1806.33 70.6183H1746.74V1.75293H1806.33V70.6183ZM1807.33 71.6183V140.484H1866.91V71.6183H1807.33ZM1866.91 70.6183H1807.33V1.75293H1866.91V70.6183ZM1867.91 71.6183V140.484H1927.5V71.6183H1867.91ZM1927.5 70.6183H1867.91V1.75293H1927.5V70.6183ZM1019.69 210.349V141.484H1079.28V210.349H1019.69ZM1080.28 210.349V141.484H1139.87V210.349H1080.28ZM1140.87 210.349V141.484H1200.46V210.349H1140.87ZM1201.46 210.349V141.484H1261.04V210.349H1201.46ZM1262.04 210.349V141.484H1321.63V210.349H1262.04ZM1322.63 210.349V141.484H1382.22V210.349H1322.63ZM1383.22 210.349V141.484H1442.8V210.349H1383.22ZM1443.8 210.349V141.484H1503.39V210.349H1443.8ZM1504.39 210.349V141.484H1563.98V210.349H1504.39ZM1564.98 210.349V141.484H1624.56V210.349H1564.98ZM1625.56 210.349V141.484H1685.15V210.349H1625.56ZM1686.15 210.349V141.484H1745.74V210.349H1686.15ZM1746.74 210.349V141.484H1806.33V210.349H1746.74ZM1807.33 210.349V141.484H1866.91V210.349H1807.33ZM1867.91 210.349V141.484H1927.5V210.349H1867.91ZM1019.69 211.349V280.209H1079.28V211.349H1019.69ZM1080.28 211.349V280.209H1139.87V211.349H1080.28ZM1140.87 211.349V280.209H1200.46V211.349H1140.87ZM1201.46 211.349V280.209H1261.04V211.349H1201.46ZM1262.04 211.349V280.209H1321.63V211.349H1262.04ZM1322.63 211.349V280.209H1382.22V211.349H1322.63ZM1383.22 211.349V280.209H1442.8V211.349H1383.22ZM1443.8 211.349V280.209H1503.39V211.349H1443.8ZM1504.39 211.349V280.209H1563.98V211.349H1504.39ZM1564.98 211.349V280.209H1624.56V211.349H1564.98ZM1625.56 211.349V280.209H1685.15V211.349H1625.56ZM1686.15 211.349V280.209H1745.74V211.349H1686.15ZM1746.74 211.349V280.209H1806.33V211.349H1746.74ZM1807.33 211.349V280.209H1866.91V211.349H1807.33ZM1867.91 211.349V280.209H1927.5V211.349H1867.91ZM1019.69 350.075V281.209H1079.28V350.075H1019.69ZM1080.28 350.075V281.209H1139.87V350.075H1080.28ZM1140.87 350.075V281.209H1200.46V350.075H1140.87ZM1201.46 350.075V281.209H1261.04V350.075H1201.46ZM1262.04 350.075V281.209H1321.63V350.075H1262.04ZM1322.63 350.075V281.209H1382.22V350.075H1322.63ZM1383.22 350.075V281.209H1442.8V350.075H1383.22ZM1443.8 350.075V281.209H1503.39V350.075H1443.8ZM1504.39 350.075V281.209H1563.98V350.075H1504.39ZM1564.98 350.075V281.209H1624.56V350.075H1564.98ZM1625.56 350.075V281.209H1685.15V350.075H1625.56ZM1686.15 350.075V281.209H1745.74V350.075H1686.15ZM1746.74 350.075V281.209H1806.33V350.075H1746.74ZM1807.33 350.075V281.209H1866.91V350.075H1807.33ZM1867.91 350.075V281.209H1927.5V350.075H1867.91ZM1019.69 351.075V419.94H1079.28V351.075H1019.69ZM1080.28 351.075V419.94H1139.87V351.075H1080.28ZM1140.87 351.075V419.94H1200.46V351.075H1140.87ZM1201.46 351.075V419.94H1261.04V351.075H1201.46ZM1262.04 351.075V419.94H1321.63V351.075H1262.04ZM1322.63 351.075V419.94H1382.22V351.075H1322.63ZM1383.22 351.075V419.94H1442.8V351.075H1383.22ZM1443.8 351.075V419.94H1503.39V351.075H1443.8ZM1504.39 351.075V419.94H1563.98V351.075H1504.39ZM1564.98 351.075V419.94H1624.56V351.075H1564.98ZM1625.56 351.075V419.94H1685.15V351.075H1625.56ZM1686.15 351.075V419.94H1745.74V351.075H1686.15ZM1746.74 351.075V419.94H1806.33V351.075H1746.74ZM1807.33 351.075V419.94H1866.91V351.075H1807.33ZM1867.91 351.075V419.94H1927.5V351.075H1867.91ZM1019.69 489.806V420.94H1079.28V489.806H1019.69ZM1080.28 489.806V420.94H1139.87V489.806H1080.28ZM1140.87 489.806V420.94H1200.46V489.806H1140.87ZM1201.46 489.806V420.94H1261.04V489.806H1201.46ZM1262.04 489.806V420.94H1321.63V489.806H1262.04ZM1322.63 489.806V420.94H1382.22V489.806H1322.63ZM1383.22 489.806V420.94H1442.8V489.806H1383.22ZM1443.8 489.806V420.94H1503.39V489.806H1443.8ZM1504.39 489.806V420.94H1563.98V489.806H1504.39ZM1564.98 489.806V420.94H1624.56V489.806H1564.98ZM1625.56 489.806V420.94H1685.15V489.806H1625.56ZM1686.15 489.806V420.94H1745.74V489.806H1686.15ZM1746.74 489.806V420.94H1806.33V489.806H1746.74ZM1807.33 489.806V420.94H1866.91V489.806H1807.33ZM1867.91 489.806V420.94H1927.5V489.806H1867.91ZM1019.69 490.806V559.671H1079.28V490.806H1019.69ZM1080.28 490.806V559.671H1139.87V490.806H1080.28ZM1140.87 490.806V559.671H1200.46V490.806H1140.87ZM1201.46 490.806V559.671H1261.04V490.806H1201.46ZM1262.04 490.806V559.671H1321.63V490.806H1262.04ZM1322.63 490.806V559.671H1382.22V490.806H1322.63ZM1383.22 490.806V559.671H1442.8V490.806H1383.22ZM1443.8 490.806V559.671H1503.39V490.806H1443.8ZM1504.39 490.806V559.671H1563.98V490.806H1504.39ZM1564.98 490.806V559.671H1624.56V490.806H1564.98ZM1625.56 490.806V559.671H1685.15V490.806H1625.56ZM1686.15 490.806V559.671H1745.74V490.806H1686.15ZM1746.74 490.806V559.671H1806.33V490.806H1746.74ZM1807.33 490.806V559.671H1866.91V490.806H1807.33ZM1867.91 490.806V559.671H1927.5V490.806H1867.91ZM1019.69 629.536V560.671H1079.28V629.536H1019.69ZM1080.28 629.536V560.671H1139.87V629.536H1080.28ZM1140.87 629.536V560.671H1200.46V629.536H1140.87ZM1201.46 629.536V560.671H1261.04V629.536H1201.46ZM1262.04 629.536V560.671H1321.63V629.536H1262.04ZM1322.63 629.536V560.671H1382.22V629.536H1322.63ZM1383.22 629.536V560.671H1442.8V629.536H1383.22ZM1443.8 629.536V560.671H1503.39V629.536H1443.8ZM1504.39 629.536V560.671H1563.98V629.536H1504.39ZM1564.98 629.536V560.671H1624.56V629.536H1564.98ZM1625.56 629.536V560.671H1685.15V629.536H1625.56ZM1686.15 629.536V560.671H1745.74V629.536H1686.15ZM1746.74 629.536V560.671H1806.33V629.536H1746.74ZM1807.33 629.536V560.671H1866.91V629.536H1807.33ZM1867.91 629.536V560.671H1927.5V629.536H1867.91ZM1019.69 630.536V699.397H1079.28V630.536H1019.69ZM1080.28 630.536V699.397H1139.87V630.536H1080.28ZM1140.87 630.536V699.397H1200.46V630.536H1140.87ZM1201.46 630.536V699.397H1261.04V630.536H1201.46ZM1262.04 630.536V699.397H1321.63V630.536H1262.04ZM1322.63 630.536V699.397H1382.22V630.536H1322.63ZM1383.22 630.536V699.397H1442.8V630.536H1383.22ZM1443.8 630.536V699.397H1503.39V630.536H1443.8ZM1504.39 630.536V699.397H1563.98V630.536H1504.39ZM1564.98 630.536V699.397H1624.56V630.536H1564.98ZM1625.56 630.536V699.397H1685.15V630.536H1625.56ZM1686.15 630.536V699.397H1745.74V630.536H1686.15ZM1746.74 630.536V699.397H1806.33V630.536H1746.74ZM1807.33 630.536V699.397H1866.91V630.536H1807.33ZM1867.91 630.536V699.397H1927.5V630.536H1867.91ZM1019.69 769.262V700.397H1079.28V769.262H1019.69ZM1080.28 769.262V700.397H1139.87V769.262H1080.28ZM1140.87 769.262V700.397H1200.46V769.262H1140.87ZM1201.46 769.262V700.397H1261.04V769.262H1201.46ZM1262.04 769.262V700.397H1321.63V769.262H1262.04ZM1322.63 769.262V700.397H1382.22V769.262H1322.63ZM1383.22 769.262V700.397H1442.8V769.262H1383.22ZM1443.8 769.262V700.397H1503.39V769.262H1443.8ZM1504.39 769.262V700.397H1563.98V769.262H1504.39ZM1564.98 769.262V700.397H1624.56V769.262H1564.98ZM1625.56 769.262V700.397H1685.15V769.262H1625.56ZM1686.15 769.262V700.397H1745.74V769.262H1686.15ZM1746.74 769.262V700.397H1806.33V769.262H1746.74ZM1807.33 769.262V700.397H1866.91V769.262H1807.33ZM1867.91 769.262V700.397H1927.5V769.262H1867.91ZM1019.69 770.262V839.127H1079.28V770.262H1019.69ZM1080.28 770.262V839.127H1139.87V770.262H1080.28ZM1140.87 770.262V839.127H1200.46V770.262H1140.87ZM1201.46 770.262V839.127H1261.04V770.262H1201.46ZM1262.04 770.262V839.127H1321.63V770.262H1262.04ZM1322.63 770.262V839.127H1382.22V770.262H1322.63ZM1383.22 770.262V839.127H1442.8V770.262H1383.22ZM1443.8 770.262V839.127H1503.39V770.262H1443.8ZM1504.39 770.262V839.127H1563.98V770.262H1504.39ZM1564.98 770.262V839.127H1624.56V770.262H1564.98ZM1625.56 770.262V839.127H1685.15V770.262H1625.56ZM1686.15 770.262V839.127H1745.74V770.262H1686.15ZM1746.74 770.262V839.127H1806.33V770.262H1746.74ZM1807.33 770.262V839.127H1866.91V770.262H1807.33ZM1867.91 770.262V839.127H1927.5V770.262H1867.91ZM959.107 908.993V840.127H1018.69V908.993H959.107ZM1019.69 908.993V840.127H1079.28V908.993H1019.69ZM1080.28 908.993V840.127H1139.87V908.993H1080.28ZM1140.87 908.993V840.127H1200.46V908.993H1140.87ZM1201.46 908.993V840.127H1261.04V908.993H1201.46ZM1262.04 908.993V840.127H1321.63V908.993H1262.04ZM1322.63 908.993V840.127H1382.22V908.993H1322.63ZM1383.22 908.993V840.127H1442.8V908.993H1383.22ZM1443.8 908.993V840.127H1503.39V908.993H1443.8ZM1504.39 908.993V840.127H1563.98V908.993H1504.39ZM1564.98 908.993V840.127H1624.56V908.993H1564.98ZM1625.56 908.993V840.127H1685.15V908.993H1625.56ZM1686.15 908.993V840.127H1745.74V908.993H1686.15ZM1746.74 908.993V840.127H1806.33V908.993H1746.74ZM1807.33 908.993V840.127H1866.91V908.993H1807.33ZM1867.91 908.993V840.127H1927.5V908.993H1867.91Z" fill="white" fill-opacity="0.2"/>
</svg>
