<svg width="178" height="79" viewBox="0 0 178 79" fill="none" xmlns="http://www.w3.org/2000/svg">
<path d="M17.1963 72.5716L10.819 48.7712L16.5991 47.2224L22.9764 71.0228L17.1963 72.5716ZM5.77185 65.9757L4.22307 60.1956L28.0235 53.8183L29.5723 59.5984L5.77185 65.9757ZM30.9889 50.245C30.4984 47.7345 30.7365 45.393 31.7032 43.2208C32.6623 41.0203 34.2029 39.1194 36.3248 37.5184C38.4674 35.8814 41.0546 34.6567 44.0863 33.8443C46.9764 33.0699 49.6158 32.8334 52.0045 33.1348C54.4215 33.4285 56.4377 34.2093 58.0528 35.4772C59.6963 36.7374 60.7952 38.4017 61.3494 40.4701C61.7822 42.0851 61.7595 43.7007 61.2815 45.3168C60.7959 46.9046 59.8145 48.6252 58.3372 50.4787C56.8599 52.3322 54.8246 54.4264 52.2312 56.7612L44.3492 64.0661L43.3123 62.0663L66.4327 55.8712L68.1523 62.2888L37.0418 70.6249L35.5386 65.0148L47.117 53.4852C48.9647 51.6539 50.38 50.1359 51.363 48.9311C52.3668 47.6903 53.0211 46.6191 53.3262 45.7175C53.6312 44.8158 53.666 43.9258 53.4307 43.0474C53.1877 42.1407 52.7163 41.4016 52.0165 40.8299C51.3451 40.2506 50.4603 39.8955 49.3624 39.7645C48.2644 39.6336 46.9646 39.7693 45.4629 40.1717C43.6778 40.65 42.2766 41.3139 41.2592 42.1635C40.2341 42.9848 39.556 43.9105 39.2246 44.9407C38.8933 45.9709 38.8114 47.0254 38.979 48.1041L30.9889 50.245ZM90.4877 57.0329C86.8893 57.9971 83.5866 58.138 80.5795 57.4557C77.5725 56.7734 75.0162 55.3934 72.9107 53.3155C70.7975 51.2093 69.293 48.4845 68.3972 45.1411C67.5089 41.8261 67.4533 38.7283 68.2302 35.8477C69.0071 32.9671 70.5271 30.4796 72.7901 28.3852C75.0532 26.2908 77.9839 24.7615 81.5823 23.7973C85.1523 22.8407 88.4409 22.7036 91.4479 23.3859C94.455 24.0682 97.0151 25.4624 99.1282 27.5686C101.234 29.6465 102.734 32.3571 103.63 35.7005C104.519 39.0155 104.574 42.1133 103.797 44.9939C103.02 47.8745 101.5 50.362 99.2374 52.4564C96.9743 54.5508 94.0578 56.0763 90.4877 57.0329ZM88.734 50.4878C91.7657 49.6754 93.882 48.167 95.083 45.9623C96.3123 43.7501 96.4981 41.0431 95.6402 37.8414C94.7823 34.6397 93.2679 32.3882 91.0972 31.0871C88.9548 29.7783 86.3678 29.5301 83.336 30.3424C80.3043 31.1548 78.1738 32.6671 76.9445 34.8793C75.7151 37.0915 75.5294 39.7985 76.3873 43.0002C77.2452 46.2019 78.7595 48.4534 80.9303 49.7545C83.101 51.0557 85.7022 51.3001 88.734 50.4878ZM112.645 30.4151L135.723 24.2314L137.557 31.0741L114.479 37.2578L112.645 30.4151ZM132.935 10.7662L134.769 17.6088L111.096 23.952L113.989 18.9403L121.756 47.9258L113.723 50.0782L105.182 18.2026L132.935 10.7662ZM142.336 31.2511L150.454 29.0759C150.854 30.0013 151.52 30.7337 152.455 31.273C153.389 31.8122 154.518 32.117 155.843 32.1872C157.196 32.2498 158.694 32.061 160.337 31.6206C162.689 30.9905 164.443 30.1712 165.6 29.1627C166.786 28.1466 167.219 27.0435 166.9 25.8535C166.657 24.9468 166.074 24.3589 165.152 24.0898C164.25 23.7848 162.707 23.8037 160.521 24.1464L154.187 25.1602C149.795 25.8815 146.427 25.7212 144.083 24.6791C141.767 23.6294 140.248 21.7587 139.527 19.067C138.957 16.9419 139.095 14.9615 139.939 13.1258C140.812 11.2825 142.275 9.66045 144.329 8.25974C146.412 6.85144 148.983 5.73732 152.043 4.91738C155.075 4.10503 157.87 3.82676 160.429 4.08256C162.988 4.33836 165.17 5.05944 166.976 6.24579C168.782 7.43214 170.022 9.05849 170.697 11.1248L162.58 13.2999C162.231 12.452 161.637 11.8216 160.798 11.4088C159.979 10.96 158.957 10.7175 157.733 10.6812C156.529 10.6089 155.148 10.7816 153.59 11.1992C151.436 11.7761 149.806 12.5471 148.698 13.5121C147.61 14.4412 147.219 15.4724 147.522 16.6057C147.75 17.4558 148.297 18.0229 149.163 18.3072C150.057 18.5839 151.497 18.5774 153.485 18.2878L160.181 17.268C163.24 16.7825 165.753 16.6406 167.72 16.8423C169.687 17.044 171.227 17.6336 172.339 18.6111C173.451 19.5885 174.25 20.9839 174.736 22.7973C175.321 24.979 175.167 27.0699 174.276 29.0701C173.405 31.0344 171.901 32.7887 169.764 34.3331C167.656 35.8699 165.029 37.0597 161.884 37.9024C158.625 38.7755 155.638 39.0748 152.923 38.8003C150.235 38.5182 147.963 37.7452 146.106 36.4815C144.27 35.1818 143.013 33.4383 142.336 31.2511Z" fill="#FF267E"/>
</svg>
