<svg width="208" height="43" viewBox="0 0 208 43" fill="none" xmlns="http://www.w3.org/2000/svg">
<g id="Group">
<path id="Vector" d="M74.0266 20.9335C76.2901 20.6383 78.2762 20.3162 80.0118 19.9762H99.408V15.2524H90.0767C90.5241 14.4651 90.7746 13.5884 90.7746 12.6042C90.7746 10.3229 89.1821 8.30989 86.0061 6.5832C82.83 4.85651 78.3209 3.50558 72.4967 2.5304C66.6636 1.56417 59.8552 1.08105 52.0538 1.08105C44.2524 1.08105 37.2562 1.59102 31.2709 2.61092C25.2857 3.63083 20.5529 5.06229 17.0727 6.89633C13.5925 8.73038 11.6242 10.8418 11.168 13.2305H34.107C34.6348 12.0496 36.281 11.0565 39.0455 10.2423C41.81 9.4282 46.0685 9.02561 51.8212 9.02561C57.1981 9.02561 61.3225 9.41031 64.1943 10.1708C67.0751 10.9312 68.5066 11.9869 68.5066 13.3379C68.5066 14.0357 68.0682 14.6709 67.2898 15.2614H1.73828V19.9852H40.0743C34.4559 20.4146 29.7232 20.8619 25.9835 21.3361C22.7806 21.7476 20.1056 22.195 17.9495 22.687H1.73828V27.4108H9.7902C9.56653 27.9923 9.45918 28.6097 9.45918 29.2806C9.45918 31.7052 11.1232 33.8613 14.4603 35.7401C17.7884 37.6278 22.4496 39.0861 28.4259 40.1239C34.4022 41.1617 41.4074 41.6806 49.4325 41.6806C57.9854 41.6806 65.3663 41.1796 71.5752 40.1776C77.7841 39.1756 82.6869 37.7352 86.2834 35.8653C89.8799 33.9955 91.9018 31.8125 92.3581 29.3254H69.3028C68.3903 30.7479 66.3683 31.8394 63.2281 32.5998C60.0878 33.3603 55.5251 33.745 49.5488 33.745C43.9482 33.745 39.5733 33.3513 36.4331 32.5551C33.2928 31.7589 31.7182 30.6674 31.7182 29.2806C31.7182 28.6186 32.094 27.9923 32.8097 27.4108H99.3991V22.687H56.536L57.386 22.5797C64.1227 22.0608 69.6696 21.515 74.0176 20.9424L74.0266 20.9335Z" fill="white" stroke="#FF267E" stroke-width="2" stroke-miterlimit="10"/>
<path id="Vector_2" d="M126.436 20.9335C128.699 20.6383 130.685 20.3162 132.421 19.9762H151.817V15.2524H142.486C142.933 14.4651 143.184 13.5884 143.184 12.6042C143.184 10.3229 141.591 8.30989 138.415 6.5832C135.239 4.85651 130.73 3.50558 124.906 2.5304C119.073 1.56417 112.264 1.08105 104.463 1.08105C96.6616 1.08105 89.6653 1.59102 83.6801 2.61092C77.6948 3.63083 72.9621 5.06229 69.4819 6.89633C66.0017 8.73038 64.0334 10.8418 63.5771 13.2305H86.5162C87.044 12.0496 88.6902 11.0565 91.4547 10.2423C94.2192 9.4282 98.4777 9.02561 104.23 9.02561C109.607 9.02561 113.732 9.41031 116.603 10.1708C119.484 10.9312 120.916 11.9869 120.916 13.3379C120.916 14.0357 120.477 14.6709 119.699 15.2614H54.1475V19.9852H92.4835C86.8651 20.4146 82.1323 20.8619 78.3927 21.3361C75.1898 21.7476 72.5148 22.195 70.3586 22.687H54.1475V27.4108H62.1994C61.9757 27.9923 61.8684 28.6097 61.8684 29.2806C61.8684 31.7052 63.5324 33.8613 66.8695 35.7401C70.1976 37.6278 74.8588 39.0861 80.8351 40.1239C86.8114 41.1617 93.8166 41.6806 101.842 41.6806C110.395 41.6806 117.775 41.1796 123.984 40.1776C130.193 39.1756 135.096 37.7352 138.693 35.8653C142.289 33.9955 144.311 31.8125 144.767 29.3254H121.712C120.799 30.7479 118.777 31.8394 115.637 32.5998C112.497 33.3603 107.934 33.745 101.958 33.745C96.3574 33.745 91.9825 33.3513 88.8423 32.5551C85.702 31.7589 84.1274 30.6674 84.1274 29.2806C84.1274 28.6186 84.5032 27.9923 85.2189 27.4108H151.808V22.687H108.945L109.795 22.5797C116.532 22.0608 122.079 21.515 126.427 20.9424L126.436 20.9335Z" fill="white" stroke="#FF267E" stroke-width="2" stroke-miterlimit="10"/>
<path id="Vector_3" d="M181.135 20.9335C183.398 20.6383 185.385 20.3162 187.12 19.9762H206.516V15.2524H197.185C197.632 14.4651 197.883 13.5884 197.883 12.6042C197.883 10.3229 196.29 8.30989 193.114 6.5832C189.938 4.85651 185.429 3.50558 179.605 2.5304C173.772 1.56417 166.964 1.08105 159.162 1.08105C151.361 1.08105 144.365 1.59102 138.379 2.61092C132.394 3.63083 127.661 5.06229 124.181 6.89633C120.701 8.73038 118.733 10.8418 118.276 13.2305H141.215C141.743 12.0496 143.389 11.0565 146.154 10.2423C148.918 9.4282 153.177 9.02561 158.93 9.02561C164.306 9.02561 168.431 9.41031 171.303 10.1708C174.183 10.9312 175.615 11.9869 175.615 13.3379C175.615 14.0357 175.177 14.6709 174.398 15.2614H108.847V19.9852H147.183C141.564 20.4146 136.832 20.8619 133.092 21.3361C129.889 21.7476 127.214 22.195 125.058 22.687H108.847V27.4108H116.899C116.675 27.9923 116.568 28.6097 116.568 29.2806C116.568 31.7052 118.232 33.8613 121.569 35.7401C124.897 37.6278 129.558 39.0861 135.534 40.1239C141.511 41.1617 148.516 41.6806 156.541 41.6806C165.094 41.6806 172.475 41.1796 178.684 40.1776C184.893 39.1756 189.795 37.7352 193.392 35.8653C196.988 33.9955 199.01 31.8125 199.467 29.3254H176.411C175.499 30.7479 173.477 31.8394 170.336 32.5998C167.196 33.3603 162.633 33.745 156.657 33.745C151.057 33.745 146.682 33.3513 143.541 32.5551C140.401 31.7589 138.827 30.6674 138.827 29.2806C138.827 28.6186 139.202 27.9923 139.918 27.4108H206.507V22.687H163.644L164.494 22.5797C171.231 22.0608 176.778 21.515 181.126 20.9424L181.135 20.9335Z" fill="white" stroke="#FF267E" stroke-width="2" stroke-miterlimit="10"/>
</g>
</svg>
