<svg width="133" height="133" viewBox="0 0 133 133" fill="none" xmlns="http://www.w3.org/2000/svg">
<g id="form_object_1">
<g id="Group">
<path id="Vector" d="M90.8977 108.241C67.9072 121.777 38.1376 113.976 24.5306 90.8617C10.9236 67.7475 18.5599 37.9257 41.5411 24.3953C64.5316 10.8594 94.3011 18.6604 107.908 41.7746C121.515 64.8888 113.879 94.7107 90.8977 108.241ZM42.4845 25.986C20.3775 38.9992 13.0306 67.6799 26.12 89.9191C39.2093 112.158 67.8474 119.664 89.9543 106.65C112.061 93.6371 119.408 64.9564 106.319 42.7172C93.2295 20.478 64.5914 12.9728 42.4845 25.986Z" fill="#FF267E"/>
</g>
<path id="Vector_2" d="M81.6027 92.4655C68.1084 100.406 50.9032 97.4896 40.7055 85.5319L42.8789 83.6777C52.1801 94.5795 67.8491 97.2342 80.1417 89.9997C92.4343 82.7652 97.6842 67.8706 92.7561 54.494L95.4418 53.5053C100.845 68.1809 95.0222 84.5679 81.5934 92.4709L81.6027 92.4655Z" fill="#FF267E"/>
<path id="Vector_3" d="M45.8947 72.8453L43.9318 69.4454L54.0474 63.6052L52.344 60.6549L41.7399 66.1028L38.3062 60.1554L39.6274 55.334L42.1446 53.8807L40.7062 51.3893L44.861 48.9906L46.2994 51.4819L50.8192 48.8724L52.7821 52.2723L42.8255 58.0207L44.3775 60.7087L54.9816 55.2608L58.5722 61.4798L57.2682 66.2663L54.8352 67.671L56.2736 70.1623L52.1188 72.5611L50.6804 70.0698L45.908 72.8251L45.8947 72.8453Z" fill="#FF267E"/>
<path id="Vector_4" d="M69.3546 59.3008L67.3917 55.901L77.5073 50.0607L75.804 47.1104L65.1999 52.5584L61.7661 46.611L63.0874 41.7896L65.6046 40.3363L64.1662 37.8449L68.321 35.4461L69.7594 37.9375L74.2791 35.328L76.242 38.7279L66.2855 44.4763L67.8374 47.1643L78.4416 41.7164L82.0321 47.9354L80.7281 52.7219L78.2951 54.1265L79.7335 56.6179L75.5787 59.0167L74.1403 56.5253L69.3679 59.2807L69.3546 59.3008Z" fill="#FF267E"/>
</g>
</svg>
