<svg width="65" height="61" viewBox="0 0 65 61" fill="none" xmlns="http://www.w3.org/2000/svg">
<g id="Group 3032">
<path id="Vector" d="M38.8491 53.3338C26.2885 56.8112 13.0835 50.7595 7.46043 38.9482L9.60741 37.9255C14.7371 48.6947 26.7634 54.2049 38.2056 51.0365C49.6478 47.868 57.0778 37.0234 55.9972 25.2065L58.3696 24.9902C59.5526 37.954 51.3402 49.875 38.8404 53.3361L38.8491 53.3338Z" fill="#00003D" fill-opacity="0.7"/>
<g id="Group 3035">
<g id="Group 3034">
<path id="Vector_2" d="M12.9809 30.5781L12.059 27.1377L22.1471 24.4346L21.3472 21.4491L10.926 23.6929L9.31337 17.6746L11.5583 13.7716L14.0687 13.099L13.3931 10.5779L17.5366 9.46768L18.2121 11.9887L22.7196 10.781L23.6414 14.2214L13.712 16.882L14.4408 19.6021L24.862 17.3583L26.5483 23.6514L24.3263 27.5279L21.8999 28.1781L22.5754 30.6991L18.4319 31.8094L17.7564 29.2883L12.997 30.5636L12.9809 30.5781Z" fill="#00003D" fill-opacity="0.7"/>
<path id="Vector_3" d="M35.6703 24.4985L34.7485 21.0581L44.8366 18.355L44.0366 15.3695L33.6154 17.6133L32.0028 11.595L34.2477 7.69204L36.7581 7.01939L36.0826 4.49833L40.2261 3.38808L40.9016 5.90915L45.409 4.70138L46.3309 8.14179L36.4015 10.8024L37.1303 13.5225L47.5515 11.2787L49.2377 17.5719L47.0157 21.4483L44.5894 22.0985L45.2649 24.6195L41.1214 25.7298L40.4459 23.2087L35.6865 24.484L35.6703 24.4985Z" fill="#00003D" fill-opacity="0.7"/>
</g>
</g>
</g>
</svg>
