<svg width="356" height="228" viewBox="0 0 356 228" fill="none" xmlns="http://www.w3.org/2000/svg">
<path d="M13.9919 108.164L75.6361 98.4964L38.182 74.0517L96.5288 76.8579L75.9156 44.0506L125.199 58.9673L123.318 20.9857L158.844 46.4466L175.852 6.90809L194.332 40.4333L228.713 3.08569L228.387 41.4961L276.944 10.0126L257.746 49.6443L315.748 27.2227L279.412 64.2067L341.066 53.1311L291.055 83.7755L350.203 85.146L291.437 106.374L342.211 119.995L280.567 129.663L318.021 154.108L259.674 151.301L280.288 184.109L231.004 169.192L232.886 207.174L197.36 181.713L180.351 221.251L161.871 187.726L127.491 225.074L127.817 186.663L79.2595 218.147L98.4569 178.515L40.4548 200.937L76.7911 163.953L15.1376 175.028L65.1479 144.384L6 143.013L64.766 121.785L14.0013 108.164H13.9919Z" fill="#040612" stroke="#FF267E" stroke-width="2" stroke-miterlimit="10"/>
</svg>
