<svg width="75" height="16" viewBox="0 0 75 16" fill="none" xmlns="http://www.w3.org/2000/svg">
<g id="Group 1373">
<g id="Group 1374">
<path id="Vector (Stroke)" fill-rule="evenodd" clip-rule="evenodd" d="M0 1.14286C0 0.511675 0.511675 0 1.14286 0H56.56C57.1912 0 57.7029 0.511675 57.7029 1.14286C57.7029 1.77404 57.1912 2.28571 56.56 2.28571H1.14286C0.511675 2.28571 0 1.77404 0 1.14286Z" fill="#FF267E" fill-opacity="0.4"/>
<path id="Vector (Stroke)_2" fill-rule="evenodd" clip-rule="evenodd" d="M0 7.99979C0 7.36861 0.511675 6.85693 1.14286 6.85693H65.0514C65.6826 6.85693 66.1943 7.36861 66.1943 7.99979C66.1943 8.63097 65.6826 9.14265 65.0514 9.14265H1.14286C0.511675 9.14265 0 8.63097 0 7.99979Z" fill="#FF267E" fill-opacity="0.4"/>
<path id="Vector (Stroke)_3" fill-rule="evenodd" clip-rule="evenodd" d="M0 14.8572C0 14.226 0.511675 13.7144 1.14286 13.7144H73.5429C74.174 13.7144 74.6857 14.226 74.6857 14.8572C74.6857 15.4884 74.174 16.0001 73.5429 16.0001H1.14286C0.511675 16.0001 0 15.4884 0 14.8572Z" fill="#FF267E" fill-opacity="0.4"/>
</g>
</g>
</svg>
