<svg width="251" height="54" viewBox="0 0 251 54" fill="none" xmlns="http://www.w3.org/2000/svg">
<path d="M249.038 16.265H240.163L237.201 13.3126H234.249L231.288 10.3513H225.374L222.422 7.39H219.46L213.547 1.47632H207.633L204.672 4.43763V7.39L210.585 13.3126V16.265H181.008L178.056 19.2263V22.1787L181.008 25.14H195.797V31.0537L198.758 34.015V39.9287L201.71 42.89V45.8424L204.672 48.8037L207.633 51.7561H228.335L231.288 48.8037H240.163L243.124 45.8424H249.038V16.265Z" fill="#FF267E"/>
<path d="M179.522 20.7023V17.741H176.561V20.7023H179.522Z" fill="#040612"/>
<path d="M179.532 23.6637V20.7024H176.571V23.6637H179.532Z" fill="#040612"/>
<path d="M217.984 17.7501V14.7888L179.532 14.7888V17.7501L217.984 17.7501Z" fill="#040612"/>
<path d="M206.157 26.6249V23.6636H179.541V26.6249H206.157Z" fill="#040612"/>
<path d="M197.282 29.5863V26.625H194.321V29.5863H197.282Z" fill="#040612"/>
<path d="M197.272 32.5387V29.5774H194.311V32.5387H197.272Z" fill="#040612"/>
<path d="M209.101 35.4911V32.5298H197.273V35.4911H209.101Z" fill="#040612"/>
<path d="M200.234 38.4525V35.4912H197.273V38.4525H200.234Z" fill="#040612"/>
<path d="M200.234 41.4047V38.4434H197.273V41.4047H200.234Z" fill="#040612"/>
<path d="M212.07 44.3661V41.4048H200.243V44.3661H212.07Z" fill="#040612"/>
<path d="M203.195 47.3273V44.366H200.234V47.3273H203.195Z" fill="#040612"/>
<path d="M206.147 50.2887V47.3274H203.186V50.2887H206.147Z" fill="#040612"/>
<path d="M229.812 53.2411V50.2798H206.148V53.2411H229.812Z" fill="#040612"/>
<path d="M241.639 50.2887V47.3274H229.811V50.2887H241.639Z" fill="#040612"/>
<path d="M250.522 47.3273V44.366H241.647V47.3273H250.522Z" fill="#040612"/>
<path d="M209.109 11.8363V8.875H206.148V11.8363H209.109Z" fill="#040612"/>
<path d="M206.147 8.86609V2.95239H203.186V8.86609H206.147Z" fill="#040612"/>
<path d="M215.022 2.96134V0L206.147 0V2.96134L215.022 2.96134Z" fill="#040612"/>
<path d="M217.976 5.92274V2.96143H215.014V5.92274H217.976Z" fill="#040612"/>
<path d="M223.897 8.87489V5.91357H217.984V8.87489H223.897Z" fill="#040612"/>
<path d="M232.772 11.8273V8.86597H223.897V11.8273H232.772Z" fill="#040612"/>
<path d="M238.687 14.7975V11.8362H232.773V14.7975H238.687Z" fill="#040612"/>
<path d="M250.514 17.7501V14.7888H238.686V17.7501H250.514Z" fill="#040612"/>
<path d="M250.514 47.3275V14.7888H247.552V47.3275H250.514Z" fill="#040612"/>
<path d="M212.07 14.7975V11.8362H209.109V14.7975H212.07Z" fill="#040612"/>
<path d="M161.549 16.265H152.674L149.722 13.3126H146.761L143.808 10.3513H137.886L134.933 7.39H131.972L126.058 1.47632H120.145L117.183 4.43763V7.39L123.097 13.3126V16.265H93.5287L90.5674 19.2263V22.1787L93.5287 25.14H108.308V31.0537L111.27 34.015V39.9287L114.231 42.89V45.8424L117.183 48.8037L120.145 51.7561H140.847L143.808 48.8037H152.674L155.636 45.8424H161.549V16.265Z" fill="#FF267E"/>
<path d="M92.043 20.7113V17.75H89.0817V20.7113H92.043Z" fill="#040612"/>
<path d="M92.043 23.6728V20.7114H89.0817V23.6728H92.043Z" fill="#040612"/>
<path d="M130.496 17.7501V14.7888L92.0437 14.7888V17.7501L130.496 17.7501Z" fill="#040612"/>
<path d="M118.668 26.6249V23.6636H92.0519V26.6249H118.668Z" fill="#040612"/>
<path d="M109.793 29.5773V26.616H106.832V29.5773H109.793Z" fill="#040612"/>
<path d="M109.793 32.5387V29.5774H106.832V32.5387H109.793Z" fill="#040612"/>
<path d="M121.621 35.4999V32.5386H109.794V35.4999H121.621Z" fill="#040612"/>
<path d="M112.755 38.4525V35.4912H109.794V38.4525H112.755Z" fill="#040612"/>
<path d="M112.746 41.4137V38.4524H109.785V41.4137H112.746Z" fill="#040612"/>
<path d="M124.582 44.3661V41.4048H112.755V44.3661H124.582Z" fill="#040612"/>
<path d="M115.707 47.3273V44.366H112.746V47.3273H115.707Z" fill="#040612"/>
<path d="M118.659 50.2887V47.3274H115.698V50.2887H118.659Z" fill="#040612"/>
<path d="M142.323 53.2411V50.2798H118.66V53.2411H142.323Z" fill="#040612"/>
<path d="M154.15 50.2797V47.3184H142.323V50.2797H154.15Z" fill="#040612"/>
<path d="M163.034 47.3273V44.366H154.159V47.3273H163.034Z" fill="#040612"/>
<path d="M121.621 11.8363V8.875H118.66V11.8363H121.621Z" fill="#040612"/>
<path d="M118.659 8.87511V2.96143H115.698V8.87511H118.659Z" fill="#040612"/>
<path d="M127.543 2.96133V0L118.668 0V2.96133L127.543 2.96133Z" fill="#040612"/>
<path d="M130.496 5.91372V2.95239H127.535V5.91372H130.496Z" fill="#040612"/>
<path d="M136.409 8.87491V5.91357H130.495V8.87491H136.409Z" fill="#040612"/>
<path d="M145.284 11.8363V8.875H136.409V11.8363H145.284Z" fill="#040612"/>
<path d="M151.198 14.7887V11.8274H145.285V14.7887H151.198Z" fill="#040612"/>
<path d="M163.034 17.7501V14.7888H151.207V17.7501H163.034Z" fill="#040612"/>
<path d="M163.025 47.3275V14.7888H160.064V47.3275H163.025Z" fill="#040612"/>
<path d="M124.582 14.7887V11.8274H121.621V14.7887H124.582Z" fill="#040612"/>
<path d="M72.4774 16.265H63.6024L60.6411 13.3126H57.6887L54.7274 10.3513H48.8137L45.8524 7.39H42.9L36.9863 1.47632H31.0637L28.1113 4.43763V7.39L34.025 13.3126V16.265H4.44764L1.48633 19.2263V22.1787L4.44764 25.14H19.2363V31.0537L22.1976 34.015V39.9287L25.15 42.89V45.8424L28.1113 48.8037L31.0637 51.7561H51.775L54.7274 48.8037H63.6024L66.5637 45.8424H72.4774V16.265Z" fill="#FF267E"/>
<path d="M2.96191 20.7023V17.741H0.000600576V20.7023H2.96191Z" fill="#040612"/>
<path d="M2.97168 23.6637V20.7024H0.0103629V23.6637H2.97168Z" fill="#040612"/>
<path d="M41.4238 17.7501V14.7888L2.97145 14.7888V17.7501L41.4238 17.7501Z" fill="#040612"/>
<path d="M29.5967 26.6249V23.6636H2.98063V26.6249H29.5967Z" fill="#040612"/>
<path d="M20.7217 29.5863V26.625H17.7604V29.5863H20.7217Z" fill="#040612"/>
<path d="M20.7119 32.5387V29.5774H17.7506V32.5387H20.7119Z" fill="#040612"/>
<path d="M32.54 35.4911V32.5298H20.7127V35.4911H32.54Z" fill="#040612"/>
<path d="M23.6738 38.4523V35.491H20.7125V38.4523H23.6738Z" fill="#040612"/>
<path d="M23.6738 41.4047V38.4434H20.7125V41.4047H23.6738Z" fill="#040612"/>
<path d="M35.5098 44.3751V41.4138H23.6824V44.3751H35.5098Z" fill="#040612"/>
<path d="M26.626 47.3273V44.366H23.6647V47.3273H26.626Z" fill="#040612"/>
<path d="M29.5869 50.2887V47.3274H26.6256V50.2887H29.5869Z" fill="#040612"/>
<path d="M53.251 53.2411V50.2798H29.5873V53.2411H53.251Z" fill="#040612"/>
<path d="M65.0781 50.2887V47.3274H53.2508V50.2887H65.0781Z" fill="#040612"/>
<path d="M73.9531 47.3273V44.366H65.0781V47.3273H73.9531Z" fill="#040612"/>
<path d="M32.5488 11.8363V8.875H29.5875V11.8363H32.5488Z" fill="#040612"/>
<path d="M29.5869 8.86608V2.95239H26.6256V8.86608H29.5869Z" fill="#040612"/>
<path d="M38.4619 2.96131V0L29.5869 0V2.96131L38.4619 2.96131Z" fill="#040612"/>
<path d="M41.415 5.92274V2.96143H38.4537V5.92274H41.415Z" fill="#040612"/>
<path d="M47.3369 8.87489V5.91357H41.4232V8.87489H47.3369Z" fill="#040612"/>
<path d="M56.2119 11.8363V8.875H47.3369V11.8363H56.2119Z" fill="#040612"/>
<path d="M62.126 14.7975V11.8362H56.2123V14.7975H62.126Z" fill="#040612"/>
<path d="M73.9531 17.7501V14.7888H62.1258V17.7501H73.9531Z" fill="#040612"/>
<path d="M73.9531 47.3275V14.7888H70.9918V47.3275H73.9531Z" fill="#040612"/>
<path d="M35.5098 14.7975V11.8362H32.5484V14.7975H35.5098Z" fill="#040612"/>
</svg>
