<svg width="39" height="28" viewBox="0 0 39 28" fill="none" xmlns="http://www.w3.org/2000/svg">
<g id="Group">
<path id="Vector" d="M0.862305 8.72226H5.49552L7.03761 7.22275H8.58681L10.1288 5.72323H13.2201L14.7621 4.21681H16.3042L19.3954 1.21777H22.4795L24.0287 2.71729V4.21681L20.9375 7.22275V8.72226H36.3794L37.9214 10.2218V11.7282L36.3794 13.2277H28.662V16.2337L27.1128 17.7332V20.7391L25.5707 22.2386V23.7382L24.0287 25.2446L22.4795 26.7441H11.6709L10.1288 25.2446H5.49552L3.95351 23.7382H0.862305V8.72226Z" fill="#05C48A"/>
<g id="Group_2">
<path id="Vector_2" d="M38.6963 10.9744V9.47559H37.1549V10.9744H38.6963Z" fill="#00003D"/>
<path id="Vector_3" d="M38.6963 12.4744V10.9756H37.1549V12.4744H38.6963Z" fill="#00003D"/>
<path id="Vector_4" d="M37.1475 9.47602V7.97656L17.0723 7.97656V9.47602L37.1475 9.47602Z" fill="#00003D"/>
<path id="Vector_5" d="M37.1543 13.9742V12.4746H23.2544V13.9742H37.1543Z" fill="#00003D"/>
<path id="Vector_6" d="M29.4297 15.4798V13.981H27.8883V15.4798H29.4297Z" fill="#00003D"/>
<path id="Vector_7" d="M29.4297 16.9793V15.4805H27.8883V16.9793H29.4297Z" fill="#00003D"/>
<path id="Vector_8" d="M27.8877 18.4868V16.9873H21.7124V18.4868H27.8877Z" fill="#00003D"/>
<path id="Vector_9" d="M27.8877 19.9851V18.4863H26.3463V19.9851H27.8877Z" fill="#00003D"/>
<path id="Vector_10" d="M27.8877 21.4851V19.9863H26.3463V21.4851H27.8877Z" fill="#00003D"/>
<path id="Vector_11" d="M26.3457 22.9849V21.4854H20.1704V22.9849H26.3457Z" fill="#00003D"/>
<path id="Vector_12" d="M26.3389 24.4842V22.9854H24.7975V24.4842H26.3389Z" fill="#00003D"/>
<path id="Vector_13" d="M24.7959 25.9905V24.4917H23.2546V25.9905H24.7959Z" fill="#00003D"/>
<path id="Vector_14" d="M23.2539 27.4907V25.9912H10.9032V27.4907H23.2539Z" fill="#00003D"/>
<path id="Vector_15" d="M10.9033 25.9912V24.4917H4.72798V25.9912H10.9033Z" fill="#00003D"/>
<path id="Vector_16" d="M4.72852 24.4917V22.9922H0.0952306V24.4917H4.72852Z" fill="#00003D"/>
<path id="Vector_17" d="M23.2539 6.46907V4.97021H21.7126V6.46907H23.2539Z" fill="#00003D"/>
<path id="Vector_18" d="M24.7959 4.97028V1.96436H23.2538V4.97028H24.7959Z" fill="#00003D"/>
<path id="Vector_19" d="M23.2539 1.96439V0.464844L18.6206 0.464844V1.96439L23.2539 1.96439Z" fill="#00003D"/>
<path id="Vector_20" d="M18.6211 3.47005V1.97119H17.0797V3.47005H18.6211Z" fill="#00003D"/>
<path id="Vector_21" d="M17.0791 4.97025V3.4707H13.9879V4.97025H17.0791Z" fill="#00003D"/>
<path id="Vector_22" d="M13.9873 6.46968V4.97021H9.35402V6.46968H13.9873Z" fill="#00003D"/>
<path id="Vector_23" d="M9.35449 7.96927V6.46973H6.26327V7.96927H9.35449Z" fill="#00003D"/>
<path id="Vector_24" d="M6.26367 9.46878V7.96924H0.0883293V9.46878H6.26367Z" fill="#00003D"/>
<path id="Vector_25" d="M1.63672 24.4915L1.63672 7.97607H0.094658L0.094658 24.4915H1.63672Z" fill="#00003D"/>
<path id="Vector_26" d="M21.7119 7.96858V6.46973H20.1706V7.96858H21.7119Z" fill="#00003D"/>
</g>
</g>
</svg>
